<svg height="67.351921mm" viewBox="0 0 67.351921 67.351921" width="67.351921mm" xmlns="http://www.w3.org/2000/svg"><g transform="translate(-64.946491 -85.1889)"><circle cx="98.622452" cy="118.86486" fill="#d40000" r="33.675961"/><path d="m98.622452 85.1889a33.675961 33.675961 0 0 1 33.675958 33.67596 33.675961 33.675961 0 0 1 -33.675957 33.67596" fill="#0055d4"/></g><g transform="matrix(.58908355 0 0 .58908355 -21.633439 -106.041795)"><path d="m89.827584 241.93479h-14.918182v-2.24555c.569292-.0423 1.391603-.10556 2.466931-.18981 1.07533-.0842 1.834385-.21078 2.277167-.37952.695799-.27405 1.201838-.64308 1.51811-1.10695.316283-.48495.474411-1.14911.474411-1.9925v-32.5129c0-.73796-.115951-1.34941-.347901-1.83436-.231934-.50606-.780141-.92774-1.64462-1.2651-.632548-.25308-1.433774-.48494-2.403677-.6958-.948818-.23177-1.728958-.369-2.340421-.41115v-2.24555h14.918182 6.679489 14.918207v2.24555c-.65364.0233-1.43379.10656-2.34045.25308-.90666.12654-1.69733.29537-2.37202.50602-.80123.25308-1.3389.6642-1.61301 1.23346-.27409.5693-.41115 1.20186-.41115 1.89767v32.48123c0 .6958.14758 1.31781.44278 1.86602.31628.52711.8434.94882 1.58138 1.2651.44279.16883 1.15967.35848 2.15064.56926 1.01209.18981 1.86603.29537 2.56183.31635v2.24545h-14.918207zm3.854753-2.43536c1.07534-.0842 1.83439-.21078 2.27717-.37952.6958-.27405 1.20184-.64308 1.51811-1.10695.31628-.48495.47441-1.14911.47441-1.9925v-32.5129c0-.73796-.11595-1.34941-.3479-1.83436-.23193-.50606-.78014-.92774-1.64462-1.2651-.63255-.25308-1.43377-.48494-2.40367-.6958-.385297-.16881-.632486-.15791-.777007-.15807-.906646.12654-1.697329.29537-2.372046.50602-.801225.25308-1.338889.6642-1.612994 1.23346-.274092.5693-.411154 1.20186-.411154 1.89767v32.48123c0 .6958.147585 1.31781.442782 1.86602.316283.52711.843397.94882 1.581366 1.2651.442783.16883 1.159666.35848 2.150655.56926.567478.17132.749267.16218 1.124898.12644z" fill="#fff" stroke="#000" stroke-width="1.796576"/><path d="m89.827584 241.93479h-14.918182v-2.24555c.569292-.0423 1.391603-.10556 2.466931-.18981 1.07533-.0842 1.834385-.21078 2.277167-.37952.695799-.27405 1.201838-.64308 1.51811-1.10695.316283-.48495.474411-1.14911.474411-1.9925v-32.5129c0-.73796-.115951-1.34941-.347901-1.83436-.231934-.50606-.780141-.92774-1.64462-1.2651-.632548-.25308-1.433774-.48494-2.403677-.6958-.948818-.23177-1.728958-.369-2.340421-.41115v-2.24555h14.918182 6.679489 14.918207v2.24555c-.65364.0233-1.43379.10656-2.34045.25308-.90666.12654-1.69733.29537-2.37202.50602-.80123.25308-1.3389.6642-1.61301 1.23346-.27409.5693-.41115 1.20186-.41115 1.89767v32.48123c0 .6958.14758 1.31781.44278 1.86602.31628.52711.8434.94882 1.58138 1.2651.44279.16883 1.15967.35848 2.15064.56926 1.01209.18981 1.86603.29537 2.56183.31635v2.24545h-14.918207zm3.854753-2.43536c1.07534-.0842 1.83439-.21078 2.27717-.37952.6958-.27405 1.20184-.64308 1.51811-1.10695.31628-.48495.47441-1.14911.47441-1.9925v-32.5129c0-.73796-.11595-1.34941-.3479-1.83436-.23193-.50606-.78014-.92774-1.64462-1.2651-.63255-.25308-1.43377-.48494-2.40367-.6958-.385297-.16881-.632486-.15791-.777007-.15807-.906646.12654-1.697329.29537-2.372046.50602-.801225.25308-1.338889.6642-1.612994 1.23346-.274092.5693-.411154 1.20186-.411154 1.89767v32.48123c0 .6958.147585 1.31781.442782 1.86602.316283.52711.843397.94882 1.581366 1.2651.442783.16883 1.159666.35848 2.150655.56926.567478.17132.749267.16218 1.124898.12644z" fill="#d40000"/><g fill="#fff" stroke="#000" stroke-width=".898288"><g font-family="Roboto" letter-spacing="0" text-anchor="middle" word-spacing="0"><text font-size="19.451321" x="93.423286" y="215.63017"><tspan fill="#fff" font-family="Georgia" stroke="#000" stroke-width=".898288" text-anchor="middle" x="93.423286" y="215.63017">AGE</tspan></text><text font-size="5.640898" x="93.31501" y="222.69856"><tspan fill="#fff" font-family="Georgia" stroke="#000" stroke-width=".898288" text-anchor="middle" x="93.31501" y="222.69856">OF</tspan></text><text font-size="15.959127" x="94.444817" y="237.12924"><tspan fill="#fff" font-family="Georgia" stroke="#000" stroke-width=".898288" text-anchor="middle" x="94.444817" y="237.12924">MPIRE</tspan></text><text font-size="17.745501" x="62.562538" y="238.36697"><tspan fill="#fff" font-family="Georgia" stroke="#000" stroke-width=".898288" text-anchor="middle" x="62.562538" y="238.36697">E</tspan></text><text font-size="17.745501" x="125.9898" y="238.3004"><tspan fill="#fff" font-family="Georgia" stroke="#000" stroke-width=".898288" text-anchor="middle" x="125.9898" y="238.3004">S</tspan></text></g><path d="m60.597992 220.5609h27.06641v.80181h-27.595577z" stroke-linecap="round"/><path d="m125.23526 220.5609h-27.066433v.80181h27.595593z" stroke-linecap="round"/></g><g fill="#fc0"><g font-family="Roboto" letter-spacing="0" text-anchor="middle" word-spacing="0"><text font-size="19.451321" stroke-width="1.111504" x="93.423286" y="215.63017"><tspan fill="#fc0" font-family="Georgia" stroke-width="1.111504" text-anchor="middle" x="93.423286" y="215.63017">AGE</tspan></text><text font-size="5.640898" stroke-width=".638136" x="93.31501" y="222.69856"><tspan fill="#fc0" font-family="Georgia" stroke-width=".638136" text-anchor="middle" x="93.31501" y="222.69856">OF</tspan></text><text font-size="15.959127" stroke-width=".91195" x="94.444817" y="237.12924"><tspan fill="#fc0" font-family="Georgia" stroke-width=".91195" text-anchor="middle" x="94.444817" y="237.12924">MPIRE</tspan></text><text font-size="17.745501" stroke-width=".91195" x="62.562538" y="238.36697"><tspan fill="#fc0" font-family="Georgia" stroke-width=".91195" text-anchor="middle" x="62.562538" y="238.36697">E</tspan></text><text font-size="17.745501" stroke-width="1.014029" x="125.9898" y="238.3004"><tspan fill="#fc0" font-family="Georgia" stroke-width="1.014029" text-anchor="middle" x="125.9898" y="238.3004">S</tspan></text></g><path d="m60.597992 220.5609h27.06641v.80181h-27.595577z"/><path d="m125.23526 220.5609h-27.066433v.80181h27.595593z"/></g></g><g style="font-size:9.401259;font-family:Roboto;letter-spacing:0;word-spacing:0;text-anchor:middle;fill:#ececec;stroke-width:.537215" transform="translate(-64.690907 -87.858189)"><text stroke="#000" x="98.157028" y="133.47302"><tspan dy="3" style="font-style:italic;font-weight:800;font-family:Fira Sans;text-anchor:middle;fill:#ececec;stroke:#000;stroke-width:.537215" x="98.157028" y="133.47302">CAPTAINS</tspan><tspan style="font-style:italic;font-weight:800;font-family:Fira Sans;text-anchor:middle;fill:#ececec;stroke:#000;stroke-width:.537215" x="98.157028" y="145.27826">MODE</tspan></text><text x="98.157028" y="133.47302"><tspan dy="3" style="font-style:italic;font-weight:800;font-family:Fira Sans;text-anchor:middle;fill:#ececec;stroke-width:.537215" x="98.157028" y="133.47302">CAPTAINS</tspan><tspan style="font-style:italic;font-weight:800;font-family:Fira Sans;text-anchor:middle;fill:#ececec;stroke-width:.537215" x="98.157028" y="145.27826">MODE</tspan></text></g></svg>