<?xml version="1.0" encoding="UTF-8" standalone="no"?>
<!-- Created with Inkscape (http://www.inkscape.org/) -->

<svg
   xmlns:dc="http://purl.org/dc/elements/1.1/"
   xmlns:cc="http://creativecommons.org/ns#"
   xmlns:rdf="http://www.w3.org/1999/02/22-rdf-syntax-ns#"
   xmlns:svg="http://www.w3.org/2000/svg"
   xmlns="http://www.w3.org/2000/svg"
   xmlns:sodipodi="http://sodipodi.sourceforge.net/DTD/sodipodi-0.dtd"
   xmlns:inkscape="http://www.inkscape.org/namespaces/inkscape"
   width="15.758911mm"
   height="7.9401631mm"
   viewBox="0 0 15.758911 7.9401631"
   version="1.1"
   id="svg8"
   inkscape:version="0.92.4 (5da689c313, 2019-01-14)"
   sodipodi:docname="emblems.svg">
  <defs
     id="defs2" />
  <sodipodi:namedview
     id="base"
     pagecolor="#ffffff"
     bordercolor="#666666"
     borderopacity="1.0"
     inkscape:pageopacity="0.0"
     inkscape:pageshadow="2"
     inkscape:zoom="7.9195959"
     inkscape:cx="31.03059"
     inkscape:cy="24.22387"
     inkscape:document-units="px"
     inkscape:current-layer="layer1"
     showgrid="false"
     fit-margin-top="0"
     fit-margin-left="0"
     fit-margin-right="0"
     fit-margin-bottom="0"
     inkscape:window-width="1920"
     inkscape:window-height="1002"
     inkscape:window-x="0"
     inkscape:window-y="0"
     inkscape:window-maximized="1" />
  <metadata
     id="metadata5">
    <rdf:RDF>
      <cc:Work
         rdf:about="">
        <dc:format>image/svg+xml</dc:format>
        <dc:type
           rdf:resource="http://purl.org/dc/dcmitype/StillImage" />
        <dc:title></dc:title>
      </cc:Work>
    </rdf:RDF>
  </metadata>
  <g
     inkscape:label="Ebene 1"
     inkscape:groupmode="layer"
     id="layer1"
     transform="translate(-33.378291,-18.088373)">
    <g
       id="g902"
       transform="matrix(1.0891447,0,0,1.0891447,-3.8462759,-2.3203056)">
      <path
         inkscape:connector-curvature="0"
         id="path839"
         d="m 43.441111,25.946644 c -0.110059,-0.397232 -0.205384,-0.7997 -0.207092,-1.214106 -0.03589,-0.553582 -0.151472,-1.110009 -0.0407,-1.662516 0.09464,-0.377267 0.07998,-0.818412 0.307804,-1.139906 0.236692,-0.231489 0.301598,-0.601883 0.598985,-0.770312 0.187324,-0.155568 0.508851,-0.209646 0.610922,-0.431739 0.01328,-0.347896 -0.120337,-0.689108 -0.03837,-1.034648 0.0868,-0.275467 -0.08577,-0.713642 0.234469,-0.836368 0.359914,-0.15453 0.80379,-0.166006 1.148694,0.03175 0.110624,0.283786 0.134432,0.617386 0.238846,0.903131 0.03034,0.27722 -0.05817,0.553972 -0.01175,0.820269 0.22048,0.153411 0.460809,0.269912 0.739587,0.235869 0.343864,0.04136 0.684211,0.298633 0.785904,0.632 0.003,0.359061 0.280883,0.612693 0.455215,0.897943 0.136503,0.288174 0.486521,0.547708 0.35368,0.902609 -0.107148,0.38057 -0.567323,0.511486 -0.727531,0.808208 -0.179724,0.185797 -0.09256,0.474385 -0.1574,0.708908 -0.03146,0.309142 -0.106652,0.616303 -0.121055,0.924585 0.144963,0.456955 -0.423088,0.255903 -0.677655,0.294111 -1.163288,-0.0015 -2.326578,-0.003 -3.489866,-0.0046 -8.78e-4,-0.02176 -0.0018,-0.0435 -0.0027,-0.06526 z"
         style="fill:#000000;fill-rule:evenodd;stroke:none;stroke-width:0.02141987px;stroke-linecap:butt;stroke-linejoin:miter;stroke-opacity:1" />
      <path
         style="fill:#ffcc00;fill-opacity:1;fill-rule:evenodd;stroke:none;stroke-width:0.0214884px;stroke-linecap:butt;stroke-linejoin:miter;stroke-opacity:1"
         d="m 45.613935,19.204858 c -0.03825,0.01404 -0.07184,0.0344 -0.0953,0.06849 -0.02937,0.03647 -0.06987,0.06896 -0.09244,0.107851 0.0098,0.195078 0.01957,0.390156 0.02935,0.585234 -0.08763,0.0032 -0.17531,0.0074 -0.261957,-0.0093 -0.114093,-0.0079 -0.223217,-0.04195 -0.33359,-0.06944 -0.05223,-0.02356 -0.103033,-0.05571 -0.15616,-0.07389 -0.08952,-0.01313 -0.04959,0.10196 -0.05758,0.157167 0.0027,0.107773 0.01249,0.21484 0.03177,0.320954 -0.0054,0.04053 0.04289,0.0446 0.06745,0.06478 0.160286,0.09293 0.336723,0.153353 0.509703,0.217989 0.07546,0.0096 0.150922,0.01917 0.226383,0.02875 0.0051,0.229601 0.01024,0.459202 0.01536,0.688804 0.06558,0.0571 0.132203,0.113074 0.191843,0.176523 0.123467,0.0097 0.158705,-0.125405 0.222846,-0.20466 0.01202,-0.04832 7.31e-4,-0.103443 0.0035,-0.154458 -0.0025,-0.186 -0.0051,-0.372 -0.0076,-0.558 0.07009,-0.02864 0.142852,-0.05223 0.202555,-0.1005 0.065,-0.04177 0.107991,-0.109353 0.163246,-0.162553 0.02974,-0.02344 0.04486,-0.05256 0.03687,-0.09068 -9.82e-4,-0.166043 -8.77e-4,-0.332096 -0.0036,-0.498124 -0.02133,-0.02376 -0.03756,-0.06747 -0.0729,-0.03647 0.0025,0.03397 0.0245,0.07287 -0.009,0.09778 -0.02805,0.04919 -0.09083,0.05418 -0.136754,0.08062 -0.07215,0.03519 -0.148067,0.06052 -0.224526,0.08446 -0.02559,-0.196333 -0.05117,-0.392667 -0.07676,-0.589 -0.05601,-0.0467 -0.103,-0.105618 -0.172657,-0.132372 z m 0.610112,0.794273 c 0.02089,0.03851 -0.014,0.06174 -0.03565,0.08946 -0.02858,0.04403 -0.06602,0.07885 -0.110753,0.106083 -0.05481,0.03713 -0.119521,0.0585 -0.181672,0.08075 -0.0051,-0.03496 -0.01798,-0.08592 0.02283,-0.103299 0.06708,-0.03876 0.144948,-0.05624 0.211111,-0.09508 0.03143,-0.02588 0.06641,-0.04785 0.09413,-0.07791 z m -1.390997,0.109373 c 0.141143,0.03917 0.283903,0.07446 0.429022,0.09445 0.06874,0.0056 0.137444,0.01173 0.206061,0.01874 0.0099,0.03619 0.0081,0.07969 -0.01511,0.1096 -0.07594,0.0028 -0.161108,-0.01902 -0.238395,-0.0342 -0.09365,-0.03343 -0.189511,-0.06072 -0.284285,-0.08981 -0.03726,-0.01868 -0.08738,-0.03279 -0.100374,-0.07557 0.001,-0.0077 0.0021,-0.01548 0.0031,-0.02322 z"
         id="path854"
         inkscape:connector-curvature="0" />
    </g>
    <g
       id="g898"
       transform="matrix(0.31933855,0,0,0.31933855,26.645391,12.295118)">
      <path
         style="fill:#000000;fill-rule:evenodd;stroke:none;stroke-width:0.26458332px;stroke-linecap:butt;stroke-linejoin:miter;stroke-opacity:1"
         d="m 21.083893,18.141421 19.310223,0.133634 0.200453,11.425773 c -0.606688,4.831479 -2.528754,9.46441 -9.755338,13.296659 -4.837343,-2.499365 -8.796038,-5.934065 -9.755338,-12.561668 z"
         id="path878"
         inkscape:connector-curvature="0"
         sodipodi:nodetypes="cccccc" />
      <path
         sodipodi:nodetypes="cccccc"
         inkscape:connector-curvature="0"
         id="path880"
         d="m 22.422755,19.848188 16.660028,0.115294 0.172943,9.857664 c -0.523425,4.168392 -2.1817,8.165485 -8.416485,11.471785 -4.173451,-2.156344 -7.588842,-5.119656 -8.416486,-10.837666 z"
         style="fill:#ffcc00;fill-rule:evenodd;stroke:none;stroke-width:0.22827108px;stroke-linecap:butt;stroke-linejoin:miter;stroke-opacity:1" />
    </g>
  </g>
</svg>
