<?xml version="1.0" encoding="UTF-8" standalone="no"?>
<svg
   xmlns:dc="http://purl.org/dc/elements/1.1/"
   xmlns:cc="http://creativecommons.org/ns#"
   xmlns:rdf="http://www.w3.org/1999/02/22-rdf-syntax-ns#"
   xmlns:svg="http://www.w3.org/2000/svg"
   xmlns="http://www.w3.org/2000/svg"
   xmlns:xlink="http://www.w3.org/1999/xlink"
   xmlns:sodipodi="http://sodipodi.sourceforge.net/DTD/sodipodi-0.dtd"
   xmlns:inkscape="http://www.inkscape.org/namespaces/inkscape"
   version="1.0"
   viewBox="0 0 34 34"
   id="svg2"
   sodipodi:docname="green-cross.svg"
   inkscape:version="0.92.4 (5da689c313, 2019-01-14)">
  <sodipodi:namedview
     pagecolor="#ffffff"
     bordercolor="#666666"
     borderopacity="1"
     objecttolerance="10"
     gridtolerance="10"
     guidetolerance="10"
     inkscape:pageopacity="0"
     inkscape:pageshadow="2"
     inkscape:window-width="1920"
     inkscape:window-height="1002"
     id="namedview13"
     showgrid="false"
     showguides="true"
     inkscape:guide-bbox="true"
     inkscape:zoom="8"
     inkscape:cx="6.3199458"
     inkscape:cy="-3.2184599"
     inkscape:window-x="0"
     inkscape:window-y="0"
     inkscape:window-maximized="1"
     inkscape:current-layer="svg2" />
  <defs
     id="defs4">
    <linearGradient
       x1="18.505"
       y1="17.421"
       gradientTransform="matrix(0.6288442,0.6288442,-0.6288442,0.6288442,32.000018,-8.2462991)"
       x2="47.844"
       gradientUnits="userSpaceOnUse"
       y2="46.762"
       id="linearGradient1487">
      <stop
         offset="0"
         style="stop-color:#8dd35f;stop-opacity:1"
         id="stop1380" />
      <stop
         offset="1"
         style="stop-color:#5aa02c;stop-opacity:1"
         id="stop1382" />
    </linearGradient>
    <linearGradient
       inkscape:collect="always"
       xlink:href="#linearGradient1487"
       id="linearGradient827"
       gradientUnits="userSpaceOnUse"
       gradientTransform="matrix(0.6288442,0.6288442,-0.6288442,0.6288442,32.000018,-8.2462991)"
       x1="18.505"
       y1="17.421"
       x2="47.844"
       y2="46.762" />
  </defs>
  <g
     id="layer1"
     transform="rotate(-45,20.09942,19.34283)">
    <g
       transform="translate(-21.441734,-13.528241)"
       id="g1478">
      <path
         d="m 28.332962,19.07495 c -0.586898,0.05516 -1.03379,0.550129 -1.028133,1.139856 l -0.01107,15.343311 c -0.0014,0.302642 0.118794,0.59397 0.33234,0.807516 0.214254,0.214254 0.504875,0.333755 0.807516,0.332341 h 27.354378 c 0.302642,0.0014 0.593263,-0.118087 0.807516,-0.332341 0.213547,-0.213546 0.333048,-0.504167 0.331633,-0.806808 v -7.114909 c 0.0014,-0.302642 -0.118086,-0.593262 -0.33234,-0.807516 -0.213546,-0.213546 -0.504167,-0.333047 -0.806809,-0.331633 H 36.698036 v -7.089961 c 0.0014,-0.302641 -0.118087,-0.593262 -0.332341,-0.807516 -0.213546,-0.213546 -0.504874,-0.333754 -0.807516,-0.33234 l -7.114201,7.07e-4 c -0.03748,-0.0021 -0.07425,-0.0021 -0.111016,-7.07e-4 z"
         style="fill:#2d5016"
         id="path1349"
         inkscape:connector-curvature="0"
         sodipodi:nodetypes="cccscccccscccsccc" />
      <path
         d="m 35.37412,20.086325 c -0.160514,-0.09405 -0.344361,-0.1393 -0.53033,-0.132936 h -5.700695 c -0.535987,0.0028 -0.970151,0.436992 -0.972272,0.972272 l 0.01877,13.931926 c 0.0028,0.535987 0.436992,0.97015 0.972272,0.972272 h 25.913157 c 0.535279,-0.0021 0.969443,-0.436285 0.972271,-0.972272 l -5.65e-4,-5.701261 C 56.04411,28.620551 55.6103,28.186741 55.074455,28.184054 H 35.816203 l -1.42e-4,-7.258393 c 0.0078,-0.33729 -0.159806,-0.654781 -0.441941,-0.839336 z"
         style="fill:#5aa02c"
         id="path1468"
         inkscape:connector-curvature="0"
         sodipodi:nodetypes="ccccccccccccc" />
      <path
         d="m 34.961381,20.67584 c -0.03536,-0.01556 -0.07283,-0.02334 -0.111015,-0.02192 h -5.700695 c -0.04738,0.0021 -0.09334,0.01697 -0.132936,0.04384 -0.04738,0.02475 -0.08556,0.06293 -0.110309,0.110309 -0.01556,0.03536 -0.02192,0.111016 -0.02192,0.111016 l -0.004,13.931219 c 0,0 0.01697,0.09334 0.04384,0.132936 0.02475,0.04738 0.06293,0.08556 0.110309,0.110308 0.03536,0.01556 0.111016,0.02192 0.111016,0.02192 h 25.93518 c 0,0 0.09334,-0.01697 0.132936,-0.04384 0.04738,-0.02475 0.08556,-0.06293 0.110308,-0.110309 0.01556,-0.03536 0.02333,-0.07283 0.02192,-0.111015 v -5.700695 c -0.0021,-0.04738 -0.01697,-0.09334 -0.04384,-0.132936 -0.02475,-0.04738 -0.06293,-0.08556 -0.110309,-0.110309 -0.03535,-0.01556 -0.07283,-0.02333 -0.111015,-0.02192 l -19.523418,-7.07e-4 c -0.120915,0.0035 -0.251023,-0.02899 -0.331633,-0.109602 -0.08061,-0.08061 -0.113137,-0.210718 -0.109601,-0.331633 l -6.69e-4,-7.523417 c -0.0021,-0.04738 -0.01697,-0.09334 -0.04384,-0.132936 -0.02475,-0.04738 -0.06293,-0.08556 -0.110309,-0.110309 z"
         style="fill:url(#linearGradient827)"
         id="path1472"
         inkscape:connector-curvature="0"
         sodipodi:nodetypes="cccccccccccccccccccccccc" />
    </g>
  </g>
  <metadata
     id="metadata18">
    <rdf:RDF>
      <cc:Work>
        <dc:format>image/svg+xml</dc:format>
        <dc:type
           rdf:resource="http://purl.org/dc/dcmitype/StillImage" />
        <cc:license
           rdf:resource="http://creativecommons.org/licenses/publicdomain/" />
        <dc:publisher>
          <cc:Agent
             rdf:about="http://openclipart.org/">
            <dc:title>Openclipart</dc:title>
          </cc:Agent>
        </dc:publisher>
        <dc:title />
        <dc:date>2008-05-26T11:40:39</dc:date>
        <dc:description />
        <dc:source>https://openclipart.org/detail/16982/cross-by-jean_victor_balin</dc:source>
        <dc:creator>
          <cc:Agent>
            <dc:title>jean_victor_balin</dc:title>
          </cc:Agent>
        </dc:creator>
        <dc:subject>
          <rdf:Bag>
            <rdf:li>cancel</rdf:li>
            <rdf:li>delete</rdf:li>
            <rdf:li>icon</rdf:li>
          </rdf:Bag>
        </dc:subject>
      </cc:Work>
      <cc:License
         rdf:about="http://creativecommons.org/licenses/publicdomain/">
        <cc:permits
           rdf:resource="http://creativecommons.org/ns#Reproduction" />
        <cc:permits
           rdf:resource="http://creativecommons.org/ns#Distribution" />
        <cc:permits
           rdf:resource="http://creativecommons.org/ns#DerivativeWorks" />
      </cc:License>
    </rdf:RDF>
  </metadata>
</svg>
