<?xml version="1.0" encoding="UTF-8" standalone="no"?>
<svg
   xmlns:dc="http://purl.org/dc/elements/1.1/"
   xmlns:cc="http://creativecommons.org/ns#"
   xmlns:rdf="http://www.w3.org/1999/02/22-rdf-syntax-ns#"
   xmlns:svg="http://www.w3.org/2000/svg"
   xmlns="http://www.w3.org/2000/svg"
   version="1.0"
   viewBox="0 0 34 34"
   id="svg2">
  <defs
     id="defs4">
    <linearGradient
       x1="18.505"
       y1="17.421"
       gradientTransform="matrix(0.88932,0,0,0.88932,3.5416,3.5416)"
       x2="47.844"
       gradientUnits="userSpaceOnUse"
       y2="46.762"
       id="linearGradient1487">
      <stop
         offset="0"
         style="stop-color:#8dd35f;stop-opacity:1"
         id="stop1380" />
      <stop
         offset="1"
         style="stop-color:#5aa02c;stop-opacity:1"
         id="stop1382" />
    </linearGradient>
  </defs>
  <g
     id="layer1">
    <g
       transform="translate(-15,-15)"
       id="g1478">
      <path
         d="m 16.025,21.211 c -0.376,0.454 -0.342,1.12 0.079,1.533 L 25.36,32 16.104,41.256 c -0.215,0.213 -0.336,0.503 -0.336,0.806 0,0.302 0.121,0.592 0.336,0.805 l 5.03,5.031 c 0.213,0.215 0.504,0.336 0.806,0.336 0.303,0 0.593,-0.121 0.806,-0.336 l 9.256,-9.256 9.256,9.256 c 0.213,0.215 0.503,0.336 0.805,0.336 0.303,0 0.593,-0.121 0.806,-0.336 L 47.9,42.867 c 0.215,-0.213 0.336,-0.503 0.336,-0.805 0,-0.303 -0.121,-0.593 -0.336,-0.806 L 38.644,32 47.9,22.744 c 0.215,-0.213 0.336,-0.503 0.336,-0.806 0,-0.302 -0.121,-0.592 -0.336,-0.805 l -5.031,-5.031 c -0.213,-0.215 -0.503,-0.336 -0.806,-0.336 -0.302,0 -0.592,0.121 -0.805,0.336 l -9.256,9.256 -9.256,-9.256 c -0.213,-0.215 -0.503,-0.336 -0.806,-0.336 -0.302,0 -0.593,0.121 -0.806,0.336 l -5.03,5.031 c -0.028,0.025 -0.054,0.051 -0.079,0.078 z"
         style="fill:#2d5016"
         id="path1349" />
      <path
         d="m -14.375,15.844 c -0.18,0.047 -0.342,0.145 -0.469,0.281 l -4.031,4.031 c -0.377,0.381 -0.377,0.995 0,1.375 l 9.375,9.375 -9.375,9.375 c -0.377,0.381 -0.377,0.995 0,1.375 l 4.031,4.032 c 0.381,0.377 0.995,0.377 1.375,0 l 9.3752,-9.376 9.375,9.376 c 0.3808,0.377 0.9943,0.377 1.375,0 l 4.0318,-4.032 c 0.377,-0.38 0.377,-0.994 0,-1.375 L 1.3125,30.906 10.688,21.531 c 0.377,-0.38 0.377,-0.994 0,-1.375 L 6.6562,16.125 c -0.3807,-0.377 -0.9942,-0.377 -1.375,0 l -9.375,9.375 -9.3752,-9.375 c -0.233,-0.244 -0.576,-0.35 -0.906,-0.281 z"
         transform="translate(36.094,1.1033)"
         style="fill:#5aa02c"
         id="path1468" />
      <path
         d="m 21.844,17.656 c -0.036,0.014 -0.068,0.035 -0.094,0.063 l -4.031,4.031 c -0.032,0.035 -0.054,0.078 -0.063,0.125 -0.016,0.051 -0.016,0.105 0,0.156 0.014,0.036 0.035,0.068 0.063,0.094 l 9.562,9.563 c 0.088,0.083 0.157,0.198 0.157,0.312 0,0.114 -0.069,0.229 -0.157,0.312 l -9.562,9.563 c -0.032,0.035 -0.054,0.078 -0.063,0.125 -0.016,0.051 -0.016,0.105 0,0.156 0.014,0.036 0.035,0.068 0.063,0.094 l 4.031,4.031 c 0.035,0.032 0.078,0.054 0.125,0.063 0.051,0.016 0.105,0.016 0.156,0 0.036,-0.014 0.068,-0.035 0.094,-0.063 l 9.563,-9.562 c 0.083,-0.088 0.198,-0.157 0.312,-0.157 0.114,0 0.229,0.069 0.312,0.157 l 9.563,9.562 c 0.035,0.032 0.078,0.054 0.125,0.063 0.051,0.016 0.105,0.016 0.156,0 0.036,-0.014 0.068,-0.035 0.094,-0.063 l 4.031,-4.031 c 0.032,-0.035 0.054,-0.078 0.063,-0.125 0.016,-0.051 0.016,-0.105 0,-0.156 -0.014,-0.036 -0.035,-0.068 -0.063,-0.094 L 36.719,32.312 C 36.631,32.229 36.562,32.114 36.562,32 c 0,-0.114 0.069,-0.229 0.157,-0.312 l 9.562,-9.563 c 0.032,-0.035 0.054,-0.078 0.063,-0.125 0.016,-0.051 0.016,-0.105 0,-0.156 C 46.33,21.808 46.309,21.776 46.281,21.75 L 42.25,17.719 c -0.035,-0.032 -0.078,-0.054 -0.125,-0.063 -0.051,-0.016 -0.105,-0.016 -0.156,0 -0.036,0.014 -0.068,0.035 -0.094,0.063 l -9.563,9.562 c -0.083,0.088 -0.198,0.157 -0.312,0.157 -0.114,0 -0.229,-0.069 -0.312,-0.157 L 22.125,17.719 C 22.09,17.687 22.047,17.665 22,17.656 c -0.051,-0.016 -0.105,-0.016 -0.156,0 z"
         style="fill:url(#linearGradient1487)"
         id="path1472" />
    </g>
  </g>
  <metadata
     id="metadata18">
    <rdf:RDF>
      <cc:Work>
        <dc:format>image/svg+xml</dc:format>
        <dc:type
           rdf:resource="http://purl.org/dc/dcmitype/StillImage" />
        <cc:license
           rdf:resource="http://creativecommons.org/licenses/publicdomain/" />
        <dc:publisher>
          <cc:Agent
             rdf:about="http://openclipart.org/">
            <dc:title>Openclipart</dc:title>
          </cc:Agent>
        </dc:publisher>
        <dc:title></dc:title>
        <dc:date>2008-05-26T11:40:39</dc:date>
        <dc:description />
        <dc:source>https://openclipart.org/detail/16982/cross-by-jean_victor_balin</dc:source>
        <dc:creator>
          <cc:Agent>
            <dc:title>jean_victor_balin</dc:title>
          </cc:Agent>
        </dc:creator>
        <dc:subject>
          <rdf:Bag>
            <rdf:li>cancel</rdf:li>
            <rdf:li>delete</rdf:li>
            <rdf:li>icon</rdf:li>
          </rdf:Bag>
        </dc:subject>
      </cc:Work>
      <cc:License
         rdf:about="http://creativecommons.org/licenses/publicdomain/">
        <cc:permits
           rdf:resource="http://creativecommons.org/ns#Reproduction" />
        <cc:permits
           rdf:resource="http://creativecommons.org/ns#Distribution" />
        <cc:permits
           rdf:resource="http://creativecommons.org/ns#DerivativeWorks" />
      </cc:License>
    </rdf:RDF>
  </metadata>
</svg>
