<?xml version="1.0" encoding="UTF-8" standalone="no"?>
<svg
   xmlns:dc="http://purl.org/dc/elements/1.1/"
   xmlns:cc="http://creativecommons.org/ns#"
   xmlns:rdf="http://www.w3.org/1999/02/22-rdf-syntax-ns#"
   xmlns:svg="http://www.w3.org/2000/svg"
   xmlns="http://www.w3.org/2000/svg"
   xmlns:xlink="http://www.w3.org/1999/xlink"
   xmlns:sodipodi="http://sodipodi.sourceforge.net/DTD/sodipodi-0.dtd"
   xmlns:inkscape="http://www.inkscape.org/namespaces/inkscape"
   version="1.0"
   viewBox="0 0 34 34"
   id="svg2"
   sodipodi:docname="steal-marker.svg"
   inkscape:version="0.92.5 (2060ec1f9f, 2020-04-08)">
  <sodipodi:namedview
     pagecolor="#ffffff"
     bordercolor="#666666"
     borderopacity="1"
     objecttolerance="10"
     gridtolerance="10"
     guidetolerance="10"
     inkscape:pageopacity="0"
     inkscape:pageshadow="2"
     inkscape:window-width="1920"
     inkscape:window-height="1002"
     id="namedview19"
     showgrid="false"
     inkscape:zoom="5.6568543"
     inkscape:cx="-23.433449"
     inkscape:cy="17.70633"
     inkscape:window-x="0"
     inkscape:window-y="0"
     inkscape:window-maximized="1"
     inkscape:current-layer="svg2" />
  <defs
     id="defs4">
    <linearGradient
       x1="20.153"
       y1="13.746"
       gradientTransform="matrix(.88932 0 0 .88932 3.5416 3.5416)"
       x2="40.305"
       gradientUnits="userSpaceOnUse"
       y2="48.977"
       id="linearGradient1483">
      <stop
         offset="0"
         style="stop-color:#982007"
         id="stop1354" />
      <stop
         offset="1"
         style="stop-color:#510f02"
         id="stop1356" />
    </linearGradient>
    <linearGradient
       x1="18.505"
       y1="17.421"
       gradientTransform="matrix(.88932 0 0 .88932 -32.549 2.4514)"
       x2="47.844"
       gradientUnits="userSpaceOnUse"
       y2="46.762"
       id="linearGradient1485">
      <stop
         offset="0"
         style="stop-color:#f1140c"
         id="stop1367" />
      <stop
         offset="1"
         style="stop-color:#8d1a02"
         id="stop1370" />
    </linearGradient>
    <linearGradient
       x1="18.505"
       y1="17.421"
       gradientTransform="matrix(.88932 0 0 .88932 3.5416 3.5416)"
       x2="47.844"
       gradientUnits="userSpaceOnUse"
       y2="46.762"
       id="linearGradient1487">
      <stop
         offset="0"
         style="stop-color:#ff8b8e"
         id="stop1380" />
      <stop
         offset="1"
         style="stop-color:#b42314;stop-opacity:.72241"
         id="stop1382" />
    </linearGradient>
    <linearGradient
       gradientTransform="matrix(0.1293517,0,0,0.1293517,-24.717882,-31.607692)"
       inkscape:collect="always"
       xlink:href="#linearGradient851"
       id="linearGradient853"
       x1="348.21429"
       y1="407.87683"
       x2="294.28571"
       y2="345.73395"
       gradientUnits="userSpaceOnUse" />
    <linearGradient
       inkscape:collect="always"
       id="linearGradient851">
      <stop
         style="stop-color:#ff0000;stop-opacity:1"
         offset="0"
         id="stop847" />
      <stop
         style="stop-color:#ff5555;stop-opacity:1"
         offset="1"
         id="stop849" />
    </linearGradient>
    <linearGradient
       gradientTransform="matrix(0.1293517,0,0,0.1293517,-24.717882,-31.607692)"
       inkscape:collect="always"
       xlink:href="#linearGradient859"
       id="linearGradient861"
       x1="351.66043"
       y1="415.065"
       x2="288.37082"
       y2="340.065"
       gradientUnits="userSpaceOnUse" />
    <linearGradient
       inkscape:collect="always"
       id="linearGradient859">
      <stop
         style="stop-color:#d40000;stop-opacity:1"
         offset="0"
         id="stop855" />
      <stop
         style="stop-color:#d40000;stop-opacity:1"
         offset="1"
         id="stop857" />
    </linearGradient>
  </defs>
  <metadata
     id="metadata18">
    <rdf:RDF>
      <cc:Work>
        <dc:format>image/svg+xml</dc:format>
        <dc:type
           rdf:resource="http://purl.org/dc/dcmitype/StillImage" />
        <cc:license
           rdf:resource="http://creativecommons.org/licenses/publicdomain/" />
        <dc:publisher>
          <cc:Agent
             rdf:about="http://openclipart.org/">
            <dc:title>Openclipart</dc:title>
          </cc:Agent>
        </dc:publisher>
        <dc:title></dc:title>
        <dc:date>2008-05-26T11:40:39</dc:date>
        <dc:description />
        <dc:source>https://openclipart.org/detail/16982/cross-by-jean_victor_balin</dc:source>
        <dc:creator>
          <cc:Agent>
            <dc:title>jean_victor_balin</dc:title>
          </cc:Agent>
        </dc:creator>
        <dc:subject>
          <rdf:Bag>
            <rdf:li>cancel</rdf:li>
            <rdf:li>delete</rdf:li>
            <rdf:li>icon</rdf:li>
          </rdf:Bag>
        </dc:subject>
      </cc:Work>
      <cc:License
         rdf:about="http://creativecommons.org/licenses/publicdomain/">
        <cc:permits
           rdf:resource="http://creativecommons.org/ns#Reproduction" />
        <cc:permits
           rdf:resource="http://creativecommons.org/ns#Distribution" />
        <cc:permits
           rdf:resource="http://creativecommons.org/ns#DerivativeWorks" />
      </cc:License>
    </rdf:RDF>
  </metadata>
  <g
     id="g898">
    <g
       id="g883" />
  </g>
  <g
     transform="matrix(0.16760282,0,0,0.16760282,2.0352515,0.41586604)"
     id="g1483"
     style="stroke-width:0.59664869;stroke-miterlimit:4;stroke-dasharray:none">
    <path
       sodipodi:nodetypes="ccccccccccccccccccccccccsccccccccccccccccccc"
       inkscape:connector-curvature="0"
       id="path839"
       d="m 40.353063,123.22138 c -0.871514,-0.6991 -0.373455,-1.45095 -1.209687,-1.8443 -1.88921,-1.62737 -4.030377,-2.898 -6.056516,-4.33613 -0.55159,-0.69701 0.224909,-1.72406 -1.064947,-2.05149 -1.50176,-1.01992 1.614683,-2.96193 -0.702656,-3.69164 -0.84277,0.066 -1.403107,-1.48169 -2.550964,-1.12321 -0.13519,-0.85257 -1.556109,-0.44459 -1.281047,-1.67329 -0.522633,-0.6884 -0.897467,-0.78072 -0.910713,-1.50774 -0.852921,0.14839 -1.859465,0.42405 -2.485027,-0.23299 -0.86737,-0.12801 -1.006943,-0.85089 -1.48196,-1.29916 0.950207,-0.29079 -0.812457,-1.00168 -0.05303,-1.5938 -0.279385,-0.74609 -1.196867,-1.44588 -1.585038,-1.90797 1.496593,-0.8898 -3.214137,-1.25911 -1.420202,-1.82261 1.655154,-0.348882 4.221038,0.61633 4.560421,2.42657 0.192766,1.17133 0.512526,3.10954 1.957971,1.64764 1.569021,-1.0518 2.70609,-2.44537 3.015063,-3.95954 0.905101,-1.454432 2.858072,-1.731474 4.459846,-2.107107 3.436033,-0.747317 6.944218,-1.07677 10.457786,-0.978652 1.135788,-0.118234 2.113607,0.620414 3.171571,0.92433 1.622422,0.499873 3.461187,1.600943 5.114776,1.085567 -0.825041,-0.869504 -0.301928,-1.097698 0.68842,-1.209787 -0.180499,-1.347529 2.404657,0.26682 3.141571,0.923446 2.605737,1.781143 4.105576,4.734913 6.675025,6.577643 0.914745,1.10531 3.146205,1.98344 3.381663,3.01532 -0.325809,0.59794 -0.467332,0.89043 -0.811066,1.24691 -0.226025,0.2344 -2.971348,-0.29924 -4.021775,-0.63475 -1.635969,-0.22972 -3.031487,0.21318 -4.594804,0.15106 -0.709864,1.02062 -2.375588,1.5518 -3.678897,1.85099 -0.685343,0.53717 -2.192006,0.373 -2.985573,1.17303 -0.688401,0.0766 -0.169058,1.11677 -1.219544,0.68717 -1.628471,-0.4261 -0.934238,2.18949 -1.483956,3.38494 -0.890667,1.83974 -3.170162,1.86165 -4.813717,2.58499 -0.973878,1.24599 -1.892908,2.83301 -1.350434,4.39079 0.09834,0.4922 -0.705556,-0.0183 -0.862558,-0.0962 z m -0.05882,-3.90375 c 0.34646,-0.54325 -0.729738,-0.60858 0.391385,-1.19439 1.207145,-1.3689 1.83925,-3.36464 2.249415,-5.1361 -1.43153,-0.61464 -3.832861,-1.25147 -5.168094,-0.20511 -1.146707,0.89558 -1.958568,3.08786 0.04765,3.60652 1.183655,0.28743 1.195777,4.19791 2.479649,2.92908 z m 4.664223,-2.87158 c 0.336117,-0.52796 -0.67381,0.67753 0,0 z"
       style="fill:#ffcc00;stroke:#000000;stroke-width:1.78994608;stroke-miterlimit:4;stroke-dasharray:none" />
    <path
       sodipodi:nodetypes="cscscscccccscccscccccccccccsscsccscscccccsscccccssccscccscscccssscscccccccscssccccccccccccscccccsccccccccscsccccsccccssscss"
       inkscape:connector-curvature="0"
       id="path837"
       d="m 141.34073,125.46988 c -1.11472,-0.11595 -1.50844,-0.71529 -1.50844,-2.29624 0,-0.53179 -0.20489,-1.05324 -0.52916,-1.3467 -0.29105,-0.26339 -0.52917,-0.74006 -0.52917,-1.05927 0,-0.3192 -0.29766,-1.92613 -0.66146,-3.57094 -0.3638,-1.64482 -0.66146,-3.02793 -0.66146,-3.07358 0,-0.0457 -0.37344,-0.50833 -0.82986,-1.02818 -0.69807,-0.79505 -0.86198,-1.24824 -1.03203,-2.85347 -0.11119,-1.04957 -0.34817,-2.3052 -0.52663,-2.79029 -0.26952,-0.73259 -0.41961,-0.85063 -0.8862,-0.6969 -7.26257,2.39277 -11.44359,1.85588 -18.70663,-2.40215 -1.10547,-0.64809 -2.16128,-1.17835 -2.34624,-1.17835 -0.18496,0 -1.69864,0.85043 -3.36374,1.88985 -3.74187,2.3358 -5.74577,3.08358 -9.1267,3.40572 -1.434117,0.13664 -2.948367,0.42471 -3.364987,0.64016 -0.71208,0.36823 -0.78367,0.5629 -1.19416,3.24726 -0.66235,4.33139 -1.08924,5.47296 -2.51632,6.72913 -1.02698,0.90398 -1.34752,1.04796 -2.07152,0.93047 -0.47109,-0.0764 -0.92527,-0.0278 -1.00929,0.10816 -0.2297,0.37167 -1.07363,0.29709 -1.42468,-0.12591 -0.25752,-0.31029 -0.47447,-0.19958 -1.28917,0.65783 -0.53875,0.56699 -1.42191,1.211 -1.96257,1.43113 -0.94635,0.3853 -0.9949,0.37806 -1.30113,-0.19415 -0.17496,-0.32691 -0.32791,-1.30905 -0.33989,-2.18254 -0.0215,-1.57074 -0.0123,-1.59093 0.83975,-1.84176 0.79306,-0.23346 0.84889,-0.321 0.70247,-1.10148 -0.2181,-1.16258 0.0684,-1.90684 0.9375,-2.43537 0.40396,-0.24566 1.83561,-1.81502 3.18144,-3.48747 3.3859,-4.20762 5.25616,-6.08353 6.06522,-6.08353 0.90704,0 2.86576,-2.09887 4.352377,-4.66382 0.65964,-1.138101 1.17513,-2.09349 1.14553,-2.12309 -0.0296,-0.0296 -0.70739,0.171779 -1.506197,0.447499 -1.88225,0.64968 -3.73937,0.63543 -5.55342,-0.0426 -0.80036,-0.299159 -2.51218,-0.653599 -3.80403,-0.787649 -2.68007,-0.2781 -4.41668,-0.94023 -5.06629,-1.93166 -0.70812,-1.08074 -0.36145,-1.482 1.28038,-1.482 1.08377,0 1.5359,-0.12529 1.89866,-0.52615 0.88398,-0.97678 3.03709,-2.17324 5.07622,-2.82078 3.13599,-0.99586 7.463597,-0.85789 11.838757,0.37743 0.55897,0.15783 1.36386,0.0395 2.91041,-0.42777 3.83957,-0.379025 4.48379,-0.514669 6.72073,-0.516447 -1.16227,-0.57356 0.31183,-4.086303 0.31183,-4.789813 0,-0.99476 2.34306,-3.0423 4.8741,-4.25935 2.32644,-1.11867 6.79337,-2.52744 8.90012,-2.80691 l 1.32531,-0.17581 -0.17142,-1.51517 c -0.13259,-1.17201 -0.0646,-1.74037 0.30041,-2.50948 0.53615,-1.12984 1.75635,-1.98772 2.82929,-1.98918 1.1892,-0.002 2.3151,1.48604 2.3151,3.05894 0,0.47875 0.1432,0.64424 0.55748,0.64424 0.38222,0 0.51047,0.12248 0.40795,0.38963 -0.0852,0.22206 0.0856,0.55434 0.39725,0.77261 0.66138,0.46324 0.43124,0.95442 -0.44719,0.95442 -0.60798,0 -0.63236,0.0614 -0.47629,1.20006 0.14008,1.02207 0.0736,1.29678 -0.44806,1.85209 -0.74971,0.79803 -1.54636,0.8294 -2.47678,0.0975 -0.7985,-0.6281 -1.48311,-0.50748 -1.48311,0.2613 0,0.28445 -0.29765,0.87092 -0.66146,1.30327 -0.4379,0.52043 -0.66145,1.10852 -0.66145,1.74009 0,0.98462 0.20555,1.13085 0.99577,0.70837 0.25269,-0.1351 1.05475,-0.50081 1.78235,-0.81271 0.72761,-0.31189 1.52966,-0.67761 1.78235,-0.8127 0.25269,-0.1351 0.69106,-0.24563 0.97417,-0.24563 0.28311,0 0.76908,-0.35719 1.07994,-0.79375 0.43674,-0.61334 0.76803,-0.79375 1.45761,-0.79375 0.49083,0 0.96599,-0.11906 1.05593,-0.26458 0.0899,-0.14552 0.45076,-0.26459 0.80182,-0.26459 0.35107,0 1.30753,-0.29596 2.12547,-0.65769 1.16511,-0.51527 1.60139,-0.59658 2.01458,-0.37544 0.57686,0.30872 0.5559,0.31721 0.92759,-0.37556 0.23439,-0.43684 0.34293,-0.38662 1.14372,0.52917 0.48662,0.5565 1.19131,1.20491 1.566,1.44092 0.37468,0.236 1.93139,1.51521 3.45936,2.84268 1.52797,1.32748 2.92696,2.4143 3.10886,2.41517 0.1819,8.8e-4 0.33073,0.0928 0.33073,0.20436 0,0.11152 0.62778,0.57826 1.39507,1.03719 2.10892,1.2614 2.40676,1.68444 2.19238,3.11401 -0.17148,1.1435 -1.21574,2.78978 -1.7696,2.78978 -0.13848,0 -0.60611,0.26196 -1.03918,0.58214 l -0.78739,0.58215 -1.51151,-0.74131 c -0.83132,-0.40772 -1.69256,-0.78131 -1.91386,-0.83019 -0.22131,-0.0489 -1.29534,-0.33941 -2.38675,-0.64561 -1.0914,-0.30621 -2.56029,-0.68866 -3.26419,-0.84991 l -1.27982,-0.29317 -1.16629,1.16629 -1.16629,1.16629 0.2992,2.31783 0.2992,2.317839 1.48545,1.281141 c 0.817,0.70462 1.85854,1.4722 2.31453,1.70572 0.45599,0.23352 1.99869,1.75476 3.42821,3.38053 1.67912,1.90963 2.93095,3.09288 3.53655,3.34278 1.22976,0.50748 1.81057,1.04624 2.42434,2.24881 0.30768,0.60285 0.89581,1.18823 1.5072,1.50013 0.55145,0.28133 1.14516,0.82432 1.31936,1.20664 0.47312,1.03838 0.41461,4.49294 -0.0831,4.906 -0.95967,0.79645 -5.238,-2.00019 -4.74395,-3.10101 0.41412,-0.92273 0.21497,-2.01944 -0.44342,-2.44193 -0.3468,-0.22253 -0.98773,-0.80146 -1.42429,-1.2865 -2.41247,-2.6804 -4.7923,-4.82624 -5.6604,-5.10386 -0.5248,-0.16783 -1.19231,-0.51182 -1.48335,-0.76441 -0.5855,-0.50815 -4.83131,-1.64441 -5.0177,-1.34282 -0.0646,0.10456 -0.19386,1.72833 -0.28719,3.60837 -0.13445,2.7082 -0.082,3.74584 0.25249,4.99521 0.23221,0.86732 0.42219,2.54907 0.42219,3.73724 0,1.18816 0.0744,2.53237 0.16537,2.98712 0.14748,0.73742 0.26568,0.82682 1.09324,0.82682 1.11008,0 2.48252,1.28674 2.9799,2.79381 0.28387,0.86011 0.25636,1.01179 -0.2887,1.59198 -0.60956,0.64885 -0.9068,0.68999 -3.23512,0.44778 z M 91.205103,115.34464 c 0.22623,0 0.46944,-0.26789 0.54045,-0.59531 0.071,-0.32742 0.22625,-0.83344 0.34497,-1.12448 0.33685,-0.8258 -0.39678,-0.13691 -1.46657,1.37712 -0.49305,0.69779 -0.65655,1.06036 -0.36333,0.8057 0.29322,-0.25467 0.71824,-0.46303 0.94448,-0.46303 z M 126.86771,85.97589 c 0,-0.14552 -0.12609,-0.26458 -0.2802,-0.26458 -0.15411,0 -0.20661,0.11906 -0.11668,0.26458 0.0899,0.14552 0.21603,0.26459 0.2802,0.26459 0.0642,0 0.11668,-0.11907 0.11668,-0.26459 z"
       style="fill:#ffcc00;stroke:#000000;stroke-width:1.78994608;stroke-miterlimit:4;stroke-dasharray:none" />
  </g>
</svg>
