<?xml version="1.0" encoding="UTF-8" standalone="no"?>
<!-- Created with Inkscape (http://www.inkscape.org/) -->

<svg
   width="90.31102mm"
   height="90.31102mm"
   viewBox="0 0 90.31102 90.31102"
   version="1.1"
   id="svg8714"
   sodipodi:docname="aoe4.Ayyubids.svg"
   inkscape:export-filename="./aoe4.Ayyubids.png"
   inkscape:export-xdpi="72"
   inkscape:export-ydpi="72"
   inkscape:version="1.1.2 (0a00cf5339, 2022-02-04)"
   xmlns:inkscape="http://www.inkscape.org/namespaces/inkscape"
   xmlns:sodipodi="http://sodipodi.sourceforge.net/DTD/sodipodi-0.dtd"
   xmlns="http://www.w3.org/2000/svg"
   xmlns:svg="http://www.w3.org/2000/svg"
   xmlns:rdf="http://www.w3.org/1999/02/22-rdf-syntax-ns#"
   xmlns:cc="http://creativecommons.org/ns#"
   xmlns:dc="http://purl.org/dc/elements/1.1/">
  <defs
     id="defs8708" />
  <sodipodi:namedview
     id="base"
     pagecolor="#ffffff"
     bordercolor="#666666"
     borderopacity="1.0"
     inkscape:pageopacity="0.0"
     inkscape:pageshadow="2"
     inkscape:zoom="1"
     inkscape:cx="91"
     inkscape:cy="226.5"
     inkscape:document-units="px"
     inkscape:current-layer="layer1"
     inkscape:pagecheckerboard="0"
     showgrid="false"
     fit-margin-top="0"
     fit-margin-left="0"
     fit-margin-right="0"
     fit-margin-bottom="0"
     inkscape:window-width="1920"
     inkscape:window-height="1002"
     inkscape:window-x="0"
     inkscape:window-y="0"
     inkscape:window-maximized="1"
     showguides="true"
     inkscape:guide-bbox="true" />
  <metadata
     id="metadata8711">
    <rdf:RDF>
      <cc:Work
         rdf:about="">
        <dc:format>image/svg+xml</dc:format>
        <dc:type
           rdf:resource="http://purl.org/dc/dcmitype/StillImage" />
      </cc:Work>
    </rdf:RDF>
  </metadata>
  <g
     inkscape:label="Ebene 1"
     inkscape:groupmode="layer"
     id="layer1"
     transform="translate(-92.427826,-139.29687)">
    <rect
       style="fill:#d4aa00;stroke-width:5.21926;stroke-linecap:round;stroke-linejoin:round;paint-order:markers stroke fill"
       id="rect859"
       width="90.31102"
       height="90.31102"
       x="92.427826"
       y="139.29688" />
    <path
       style="fill:#782121;fill-rule:evenodd;stroke:none;stroke-width:0.264584px;stroke-linecap:butt;stroke-linejoin:miter;stroke-opacity:1"
       d="m 117.20318,157.60933 c -11.28325,13.10755 -3.93916,31.89795 -3.72265,48.51387 6.76725,-9.40305 3.24666,-27.4361 16.74929,-34.00017 0.93456,4.01879 1.1269,7.98618 0.63499,11.90618 -3.63388,6.64922 -3.9248,14.72163 -6.59699,20.90812 -1.21512,2.81318 -6.29092,6.70363 -6.29092,6.70363 2.81779,-1.16857 5.62619,-2.45939 8.50652,-2.81347 0,0 -1.61028,-2.30545 -1.10403,-3.37561 1.27428,-2.69374 6.84379,-7.80495 9.00376,-12.27478 -0.8549,6.34749 -0.17252,10.69522 0,15.70621 -1.98694,2.80775 -4.73379,5.22073 -7.58137,7.58137 1.91868,-0.52861 3.89095,-1.58017 5.75149,-1.5411 -0.0766,1.25811 -0.0487,2.43935 0,3.60527 0.78984,-1.51584 1.57895,-3.0918 2.3748,-4.11327 0.4961,1.95842 1.56102,3.32153 2.65527,4.63327 1.09426,-1.31174 2.15918,-2.67485 2.65528,-4.63327 0.79585,1.02147 1.58496,2.59743 2.3748,4.11327 0.0487,-1.16592 0.0766,-2.34716 0,-3.60527 1.86053,-0.0391 3.8328,1.01249 5.75149,1.5411 -2.84759,-2.36064 -5.59444,-4.77362 -7.58137,-7.58137 0.17251,-5.01099 0.8549,-9.35872 0,-15.70621 2.15996,4.46983 7.72947,9.58104 9.00376,12.27478 0.50625,1.07016 -1.10403,3.37561 -1.10403,3.37561 2.88032,0.35408 5.68873,1.6449 8.50651,2.81347 0,0 -5.07579,-3.89045 -6.29092,-6.70363 -2.67219,-6.18649 -2.9631,-14.2589 -6.59699,-20.90812 -0.49191,-3.92 -0.29957,-7.88739 0.63499,-11.90618 13.50264,6.56407 9.98205,24.59712 16.74929,34.00017 0.21651,-16.61592 7.56061,-35.40632 -3.72264,-48.51387 -4.07748,2.35238 -8.90735,4.67272 -13.99007,4.20066 0.0112,-3.18906 -0.3446,-6.0692 -2.2,-9.11898 -0.14073,-2.95432 -3.04575,-2.94464 -6.10018,-2.77478 -0.42936,0.2388 -0.85545,0.4881 -1.1249,1.23735 -1.53686,-0.0588 -3.07435,-1.12449 -4.60963,1.38828 1.9048,0.46633 3.53443,1.19063 4.60465,2.43929 0.0655,2.38308 -1.6992,4.86679 -3.35014,6.82884 -5.08271,0.47206 -9.91258,-1.84828 -13.99006,-4.20066 z"
       id="path9273"
       sodipodi:nodetypes="ccccsccscccccccccccccsccscccccccccccc" />
  </g>
</svg>
