<?xml version="1.0" encoding="UTF-8" standalone="no"?>
<!-- Created with Inkscape (http://www.inkscape.org/) -->

<svg
   width="90.31102mm"
   height="90.31102mm"
   viewBox="0 0 90.31102 90.31102"
   version="1.1"
   id="svg8714"
   inkscape:version="1.1.2 (0a00cf5339, 2022-02-04)"
   sodipodi:docname="aoe4.ZhuXiLegacy.svg"
   inkscape:export-filename="./aoe4.JeanneDArc.png"
   inkscape:export-xdpi="72"
   inkscape:export-ydpi="72"
   xmlns:inkscape="http://www.inkscape.org/namespaces/inkscape"
   xmlns:sodipodi="http://sodipodi.sourceforge.net/DTD/sodipodi-0.dtd"
   xmlns="http://www.w3.org/2000/svg"
   xmlns:svg="http://www.w3.org/2000/svg"
   xmlns:rdf="http://www.w3.org/1999/02/22-rdf-syntax-ns#"
   xmlns:cc="http://creativecommons.org/ns#"
   xmlns:dc="http://purl.org/dc/elements/1.1/">
  <defs
     id="defs8708" />
  <sodipodi:namedview
     id="base"
     pagecolor="#ffffff"
     bordercolor="#666666"
     borderopacity="1.0"
     inkscape:pageopacity="0.0"
     inkscape:pageshadow="2"
     inkscape:zoom="1"
     inkscape:cx="195"
     inkscape:cy="204.5"
     inkscape:document-units="px"
     inkscape:current-layer="layer1"
     inkscape:pagecheckerboard="0"
     showgrid="false"
     fit-margin-top="0"
     fit-margin-left="0"
     fit-margin-right="0"
     fit-margin-bottom="0"
     inkscape:window-width="1920"
     inkscape:window-height="1002"
     inkscape:window-x="0"
     inkscape:window-y="0"
     inkscape:window-maximized="1"
     showguides="true"
     inkscape:guide-bbox="true" />
  <metadata
     id="metadata8711">
    <rdf:RDF>
      <cc:Work
         rdf:about="">
        <dc:format>image/svg+xml</dc:format>
        <dc:type
           rdf:resource="http://purl.org/dc/dcmitype/StillImage" />
      </cc:Work>
    </rdf:RDF>
  </metadata>
  <g
     inkscape:label="Ebene 1"
     inkscape:groupmode="layer"
     id="layer1"
     transform="translate(-92.427826,-139.29687)">
    <rect
       style="fill:#208b8c;fill-opacity:1;stroke-width:5.21926;stroke-linecap:round;stroke-linejoin:round;paint-order:markers stroke fill"
       id="rect859"
       width="90.31102"
       height="90.31102"
       x="92.427826"
       y="139.29688" />
    <g
       id="g45315"
       transform="matrix(1.4758825,0,0,1.4758825,-65.473502,-94.513649)">
      <g
         id="g21193"
         transform="matrix(1.3262357,0,0,1.3262357,-47.793746,-60.219227)">
        <g
           id="g21171">
          <path
             style="fill:#e6e6e6;fill-opacity:1;fill-rule:evenodd;stroke:none;stroke-width:0.264583px;stroke-linecap:butt;stroke-linejoin:miter;stroke-opacity:1"
             d="m 140.99214,189.95727 2.09445,4.13701 1.24604,1.56268 1.47006,0.0356 -0.008,-1.45031 -1.22568,-1.28133 -2.98457,-3.48429 z"
             id="path8204" />
          <path
             style="fill:#e6e6e6;fill-opacity:1;fill-rule:evenodd;stroke:none;stroke-width:0.264583px;stroke-linecap:butt;stroke-linejoin:miter;stroke-opacity:1"
             d="m 142.87673,195.61551 0.92908,1.77271 -0.1845,1.97839 -1.61135,-0.88926 -0.70159,-1.40192 -1.20731,-6.68823 0.50863,-0.15994 z"
             id="path8206"
             sodipodi:nodetypes="cccccccc" />
          <path
             style="fill:#d4aa00;fill-opacity:1;fill-rule:evenodd;stroke:none;stroke-width:0.264583px;stroke-linecap:butt;stroke-linejoin:miter;stroke-opacity:1"
             d="m 142.87673,195.61551 0.92908,1.77271 -0.1845,1.97839 -1.61135,-0.88926 -0.70159,-1.40192 z"
             id="path8459"
             sodipodi:nodetypes="cccccc" />
          <path
             style="fill:#d4aa00;fill-opacity:1;fill-rule:evenodd;stroke:none;stroke-width:0.264583px;stroke-linecap:butt;stroke-linejoin:miter;stroke-opacity:1"
             d="m 143.08659,194.09428 1.24604,1.56268 1.47006,0.0356 -0.008,-1.45031 -1.22568,-1.28133 z"
             id="path8936"
             sodipodi:nodetypes="cccccc" />
        </g>
        <g
           id="g21181"
           transform="matrix(-1,0,0,1,279.55374,0)">
          <path
             style="fill:#e6e6e6;fill-opacity:1;fill-rule:evenodd;stroke:none;stroke-width:0.264583px;stroke-linecap:butt;stroke-linejoin:miter;stroke-opacity:1"
             d="m 140.99214,189.95727 2.09445,4.13701 1.24604,1.56268 1.47006,0.0356 -0.008,-1.45031 -1.22568,-1.28133 -2.98457,-3.48429 z"
             id="path21173" />
          <path
             style="fill:#e6e6e6;fill-opacity:1;fill-rule:evenodd;stroke:none;stroke-width:0.264583px;stroke-linecap:butt;stroke-linejoin:miter;stroke-opacity:1"
             d="m 142.87673,195.61551 0.92908,1.77271 -0.1845,1.97839 -1.61135,-0.88926 -0.70159,-1.40192 -1.20731,-6.68823 0.50863,-0.15994 z"
             id="path21175"
             sodipodi:nodetypes="cccccccc" />
          <path
             style="fill:#d4aa00;fill-opacity:1;fill-rule:evenodd;stroke:none;stroke-width:0.264583px;stroke-linecap:butt;stroke-linejoin:miter;stroke-opacity:1"
             d="m 142.87673,195.61551 0.92908,1.77271 -0.1845,1.97839 -1.61135,-0.88926 -0.70159,-1.40192 z"
             id="path21177"
             sodipodi:nodetypes="cccccc" />
          <path
             style="fill:#d4aa00;fill-opacity:1;fill-rule:evenodd;stroke:none;stroke-width:0.264583px;stroke-linecap:butt;stroke-linejoin:miter;stroke-opacity:1"
             d="m 143.08659,194.09428 1.24604,1.56268 1.47006,0.0356 -0.008,-1.45031 -1.22568,-1.28133 z"
             id="path21179"
             sodipodi:nodetypes="cccccc" />
        </g>
      </g>
      <path
         style="fill:#d4aa00;fill-opacity:1;fill-rule:evenodd;stroke:none;stroke-width:0.350899px;stroke-linecap:butt;stroke-linejoin:bevel;stroke-opacity:1"
         d="m 141.58983,187.50051 2.11969,1.8608 c -1.50645,1.96841 -3.75183,2.69827 -6.12618,3.20192 -2.37436,-0.50365 -4.61974,-1.23351 -6.12619,-3.20192 l 2.11969,-1.8608 z"
         id="path15805"
         sodipodi:nodetypes="cccccc" />
      <g
         id="g21230"
         transform="matrix(1.3262357,0,0,1.3262357,-47.882318,-60.219227)">
        <g
           id="g10573">
          <path
             style="fill:#d4aa00;fill-rule:evenodd;stroke:none;stroke-width:0.264583px;stroke-linecap:butt;stroke-linejoin:bevel;stroke-opacity:1"
             d="m 151.39863,173.90754 4.92187,-4.09801 c -1.59312,7.98007 -4.20491,12.91087 -8.53172,12.70791 h -8.11983 l 2.99955,-2.99956 6.20111,-1.66158 z"
             id="path9415"
             sodipodi:nodetypes="ccccccc" />
        </g>
        <path
           style="fill:#d4aa00;fill-opacity:1;fill-rule:evenodd;stroke:none;stroke-width:0.264583px;stroke-linecap:butt;stroke-linejoin:bevel;stroke-opacity:1"
           d="m 141.80918,173.32173 -0.66573,-1.46909 c 0.96806,-0.15841 1.86994,-0.2139 2.28286,0.49107 -0.60414,0.0134 -1.17345,0.1941 -1.61713,0.97802 z"
           id="path10242"
           sodipodi:nodetypes="cccc" />
        <g
           id="g10579"
           transform="matrix(-1,0,0,1,279.68731,0)">
          <path
             style="fill:#d4aa00;fill-rule:evenodd;stroke:none;stroke-width:0.264583px;stroke-linecap:butt;stroke-linejoin:bevel;stroke-opacity:1"
             d="m 151.39863,173.90754 4.92187,-4.09801 c -1.59312,7.98007 -4.20491,12.91087 -8.53172,12.70791 h -8.11983 l 2.99955,-2.99956 6.20111,-1.66158 z"
             id="path10575"
             sodipodi:nodetypes="ccccccc" />
          <path
             style="fill:#e6e6e6;fill-rule:evenodd;stroke:none;stroke-width:0.264583px;stroke-linecap:butt;stroke-linejoin:bevel;stroke-opacity:1"
             d="m 147.03429,174.66924 4.99734,-1.25706 c -0.36652,3.84722 -1.32679,7.05582 -4.66291,7.70901 l -5.63417,0.1349 -1.19991,1.29533 -0.0269,2.48531 2.3614,1.74736 c -0.58775,1.20154 -1.5336,2.12282 -3.02548,2.61565 -1.49189,-0.49283 -2.43774,-1.41411 -3.02549,-2.61565 l 2.3614,-1.74736 -0.0269,-2.48531 -1.19991,-1.29533 -5.63417,-0.1349 c -3.33612,-0.65319 -4.29639,-3.86179 -4.66291,-7.70901 l 4.99734,1.25706 c 1.12931,1.77791 2.05595,3.79148 4.88933,3.58794 l 1.55507,-3.94684 -1.08887,-0.83307 c -0.1855,-0.7237 -0.17084,-1.37941 0.5278,-1.80279 0.51188,-0.17229 0.94201,-0.11037 1.36719,-0.0343 1.46407,0.54362 2.4574,0.75807 2.912,1.80587 0.23125,0.533 0.29629,1.6779 -0.34113,1.70932 0.37048,-1.91724 -1.24573,-1.81587 -2.11548,-2.47296 l 0.75399,1.40115 c -0.0499,1.71351 0.55316,3.26489 1.03204,4.17362 2.83338,0.20354 3.76002,-1.81003 4.88933,-3.58794 z"
             id="path10577"
             sodipodi:nodetypes="ccccccccccccccccccccaccccc" />
        </g>
      </g>
      <g
         id="g45029"
         transform="translate(-1.6296598,-14.863242)">
        <g
           id="g45007"
           transform="translate(-2.6458335)">
          <path
             id="path39420"
             style="fill:#f2f2f2;stroke:#208b8c;stroke-width:0.79375;stroke-linejoin:round;stroke-miterlimit:4;stroke-dasharray:none;stroke-opacity:1;paint-order:markers stroke fill"
             d="m 158.21947,224.26669 c -0.14493,-1.35802 0.83848,-2.57639 2.1965,-2.72132 1.35802,-0.14493 7.98313,1.63495 7.98313,1.63495 0,0 -6.10028,3.13795 -7.45829,3.28287 -1.35802,0.14493 -2.57641,-0.83848 -2.72134,-2.1965 z"
             sodipodi:nodetypes="sscss" />
          <circle
             style="fill:#f2f2f2;fill-opacity:1;stroke:#208b8c;stroke-width:0.79375;stroke-linecap:butt;stroke-linejoin:round;stroke-miterlimit:4;stroke-dasharray:none;stroke-opacity:1;paint-order:markers stroke fill"
             id="path39336"
             cx="156.96216"
             cy="225.01956"
             r="2.4914212" />
          <circle
             style="fill:#f2f2f2;fill-opacity:1;stroke:#208b8c;stroke-width:0.79375;stroke-linecap:butt;stroke-linejoin:round;stroke-miterlimit:4;stroke-dasharray:none;stroke-opacity:1;paint-order:markers stroke fill"
             id="circle39418"
             cx="153.84212"
             cy="222.01637"
             r="2.4914212" />
          <path
             id="path35976"
             style="fill:#f2f2f2;stroke:#208b8c;stroke-width:0.79375;stroke-linejoin:round;stroke-miterlimit:4;stroke-dasharray:none;stroke-opacity:1;paint-order:markers stroke fill"
             d="m 152.98041,223.13726 c 0.52351,1.26141 -0.0747,2.70837 -1.33608,3.23189 -1.26141,0.52351 -8.11936,0.69234 -8.11936,0.69234 0,0 4.96213,-4.7368 6.22354,-5.26031 1.26142,-0.52352 2.70839,0.0747 3.2319,1.33608 z"
             sodipodi:nodetypes="sscss" />
        </g>
        <g
           id="g45017"
           transform="matrix(-1,0,0,1,280.85656,0)">
          <path
             id="path45009"
             style="fill:#f2f2f2;stroke:#208b8c;stroke-width:0.79375;stroke-linejoin:round;stroke-miterlimit:4;stroke-dasharray:none;stroke-opacity:1;paint-order:markers stroke fill"
             d="m 158.21947,224.26669 c -0.14493,-1.35802 0.83848,-2.57639 2.1965,-2.72132 1.35802,-0.14493 7.98313,1.63495 7.98313,1.63495 0,0 -6.10028,3.13795 -7.45829,3.28287 -1.35802,0.14493 -2.57641,-0.83848 -2.72134,-2.1965 z"
             sodipodi:nodetypes="sscss" />
          <circle
             style="fill:#f2f2f2;fill-opacity:1;stroke:#208b8c;stroke-width:0.79375;stroke-linecap:butt;stroke-linejoin:round;stroke-miterlimit:4;stroke-dasharray:none;stroke-opacity:1;paint-order:markers stroke fill"
             id="circle45011"
             cx="156.96216"
             cy="225.01956"
             r="2.4914212" />
          <circle
             style="fill:#f2f2f2;fill-opacity:1;stroke:#208b8c;stroke-width:0.79375;stroke-linecap:butt;stroke-linejoin:round;stroke-miterlimit:4;stroke-dasharray:none;stroke-opacity:1;paint-order:markers stroke fill"
             id="circle45013"
             cx="153.84212"
             cy="222.01637"
             r="2.4914212" />
          <path
             id="path45015"
             style="fill:#f2f2f2;stroke:#208b8c;stroke-width:0.79375;stroke-linejoin:round;stroke-miterlimit:4;stroke-dasharray:none;stroke-opacity:1;paint-order:markers stroke fill"
             d="m 152.98041,223.13726 c 0.52351,1.26141 -0.0747,2.70837 -1.33608,3.23189 -1.26141,0.52351 -8.11936,0.69234 -8.11936,0.69234 0,0 4.96213,-4.7368 6.22354,-5.26031 1.26142,-0.52352 2.70839,0.0747 3.2319,1.33608 z"
             sodipodi:nodetypes="sscss" />
        </g>
      </g>
    </g>
  </g>
</svg>
