<svg width="1080" height="1080" viewBox="0 0 1080 1080" fill="none" xmlns="http://www.w3.org/2000/svg">
<rect width="1080" height="1080" fill="#0D0D0D"/>
<path d="M633.484 180.8C665.115 185.282 692.648 195.654 717.363 212.045C757.575 238.936 785.876 280.552 811.488 350.469C828.136 395.927 844.784 427.556 859.383 441.257C870.524 451.501 881.794 455.471 914.961 460.593C926.103 462.386 936.348 464.435 937.628 465.075C943.647 468.276 939.165 472.63 926.103 476.215C919.444 478.008 912.4 478.392 891.526 478.52H865.274L855.669 473.398C833.131 461.233 819.684 442.794 781.394 370.317C750.147 311.157 737.341 292.205 710.96 264.802C689.83 242.905 672.414 230.356 643.728 216.399L629.77 209.612H612.225H594.809L582.515 215.758C553.958 229.844 534.621 249.564 520.79 278.504C511.442 297.839 510.673 302.577 507.344 363.274C505.935 389.78 504.142 400.153 499.276 412.19C492.617 428.58 478.402 445.227 462.266 455.727L453.174 461.618L426.793 460.849C412.322 460.465 390.296 458.928 378.002 457.392C331.772 451.886 318.07 450.733 304.367 451.245L290.28 451.629L275.169 459.056C250.197 471.349 239.44 484.411 228.811 515.527C223.433 531.406 221.768 541.01 220.871 561.114C220.231 575.968 220.615 581.858 222.28 590.566C226.378 610.414 238.032 632.951 255.192 654.207C259.674 659.713 287.463 688.653 317.173 718.617C374.416 776.497 379.795 782.899 390.296 804.924C403.742 833.352 405.663 860.883 396.443 890.206C392.729 901.987 385.942 913.384 384.405 910.567C383.125 908.262 380.563 872.663 380.563 857.169C380.563 846.925 380.307 845.901 374.801 835.272C358.025 802.747 340.865 784.308 278.115 731.422C263.644 719.257 246.356 703.635 239.568 696.848C215.365 672.134 195.003 636.536 189.24 608.109C186.807 596.712 186.423 561.754 188.472 543.955C193.082 504.387 230.732 443.05 261.979 424.226C276.066 415.775 286.182 414.494 301.806 419.104C316.277 423.33 360.074 424.226 360.074 420.257C360.074 418.848 343.682 397.207 320.631 368.14C311.539 356.615 296.171 336.255 286.311 322.81C255.704 280.68 250.325 275.558 237.007 275.558C229.964 275.558 227.018 277.863 220.103 288.62C214.981 296.815 212.163 298.736 208.193 297.327C196.796 292.973 192.442 265.826 200.638 249.308C204.608 240.984 216.517 229.716 225.866 225.106C239.953 218.319 246.74 217.295 278.755 217.295C297.452 217.295 312.051 217.935 318.582 218.96C328.699 220.752 328.955 220.624 336.767 217.423C359.689 207.691 381.332 208.075 402.206 218.319C413.731 223.826 429.995 239.96 435.63 251.229C439.856 259.552 439.856 259.68 440.496 281.961C441.136 308.98 441.136 309.108 458.937 326.267C472.511 339.456 480.963 345.987 484.549 345.987C486.47 345.987 486.854 344.962 486.854 338.56C486.854 334.59 486.214 326.907 485.445 321.657C484.805 316.407 484.165 305.907 484.165 298.352C484.165 286.955 484.805 282.857 487.494 274.662C500.556 235.606 538.847 195.398 574.319 183.233C580.979 180.928 585.845 180.416 604.03 180.032C615.939 179.904 629.258 180.16 633.484 180.8ZM340.608 235.478L325.881 243.417L307.569 238.295C291.561 233.942 287.463 233.301 275.682 233.301C254.936 233.301 238.672 238.423 225.482 248.796C220.231 253.021 212.035 263.778 213.316 264.93C213.7 265.314 216.389 263.522 219.335 260.96C230.604 251.357 241.361 251.613 264.54 262.113C273.12 265.826 286.567 271.205 294.506 273.894L308.977 278.76L316.277 274.79C320.247 272.613 328.443 268.131 334.333 264.674C352.518 254.174 368.741 266 370.959 269.668C372.671 272.5 376 275.5 377.5 283.5C378 294.5 373.915 300.5 373 302.5C371.399 306 363.013 313.5 352 313.5C341.115 313.372 335.614 313.334 310.258 297.071C292.329 285.546 287.079 282.729 286.182 283.754C285.158 284.778 293.098 294.894 312.691 317.815C322.04 328.7 334.59 343.938 340.608 351.749C356.104 371.725 359.818 375.439 364.428 375.439C375.057 375.439 404.895 349.828 413.091 333.566C416.164 327.547 415.652 322.425 411.298 314.87C409.121 311.029 407.456 306.931 407.456 305.523C407.456 301.553 413.219 293.358 418.469 289.644C423.464 286.315 423.464 286.187 423.464 277.991C423.464 257.759 402.846 233.686 381.076 228.307C378.258 227.539 371.471 227.155 365.708 227.411C355.848 227.667 354.823 228.051 340.608 235.478ZM461.114 372.622C459.193 373.774 448.82 382.738 438.063 392.342C427.178 402.073 414.115 413.086 408.865 416.671C403.614 420.385 398.748 424.483 397.98 425.635C394.266 431.653 406.304 437.16 421.543 436.519C439.727 435.623 455.479 424.098 471.615 399.512C483.78 381.201 486.598 373.134 481.988 370.317C478.914 368.396 465.468 369.804 461.114 372.622Z" fill="#B92224"/>
<path d="M630.922 244.314C642.192 247.131 658.327 255.326 668.956 263.905C680.226 272.997 708.015 301.297 716.467 312.309C725.431 323.962 733.371 337.279 747.97 365.194C774.735 416.159 787.669 435.239 812.769 461.105C845.296 494.527 858.743 502.21 897.033 509.252C907.021 511.045 915.73 513.094 916.37 513.734C918.163 515.527 904.973 521.161 893.831 523.466C887.044 525.003 880.257 525.387 869.115 524.875C855.541 524.363 852.211 523.722 840.302 519.497C794.2 503.234 776.143 484.795 737.853 415.134C701.74 349.444 687.525 328.7 663.194 305.522C624.647 268.899 588.662 268.899 568.172 305.522C557.8 324.09 552.549 347.395 548.963 390.805C546.53 420.513 544.993 431.269 541.664 441.129C535.645 459.568 523.735 478.52 509.393 492.606C489.415 512.326 476.481 516.039 422.055 518.216L402.846 518.984L388.119 511.942L373.52 504.771H350.341H327.29L317.045 509.765C298.348 518.984 282.341 534.863 279.267 547.54C277.09 556.632 278.627 577.12 282.597 591.718C292.585 628.597 307.569 645.243 382.484 703.123C416.292 729.373 431.788 744.739 439.727 760.234C453.558 787.509 458.937 813.759 456.759 844.62C455.991 856.144 455.607 858.193 454.198 856.785C453.174 855.76 445.618 841.675 437.166 825.54C419.494 791.35 413.731 781.49 403.87 769.197C392.601 754.984 368.141 731.422 338.943 706.452C304.367 677 281.06 653.695 270.815 638.457C262.107 625.267 253.399 604.395 251.35 591.846C248.917 577.504 249.557 550.101 252.502 538.576C261.595 502.722 289 476.855 322.296 472.886C334.333 471.477 347.78 473.014 377.746 479.288C399.26 483.77 406.047 484.538 424.232 485.179C441.264 485.819 447.411 485.435 454.967 483.77C480.835 478.008 495.05 464.434 511.185 430.117C521.174 408.732 521.302 407.964 523.351 367.371C525.144 332.413 525.4 330.108 528.986 319.096C547.427 264.29 588.534 234.069 630.922 244.314Z" fill="#B92224"/>
<path d="M625.16 312.437C651.156 321.145 669.341 336.639 690.087 367.756C693.672 373.006 704.173 390.805 713.522 407.324C733.371 442.794 745.921 461.618 762.697 481.466C775.631 496.832 777.552 499.521 777.552 502.722C777.552 507.844 757.191 502.594 738.622 492.862C719.028 482.49 709.552 471.478 672.158 415.135C647.186 377.488 635.661 362.377 626.056 354.822C617.476 347.908 612.226 345.987 602.877 345.987C594.297 345.987 591.736 347.267 578.033 358.408C569.581 365.323 563.691 366.091 563.691 360.201C563.691 358.152 565.996 352.005 568.813 346.371C572.527 338.816 576.241 333.95 583.156 327.291C599.676 311.285 610.305 307.571 625.16 312.437Z" fill="#B92224"/>
<path d="M596.346 370.829C611.713 375.695 622.086 386.067 646.29 420.769C652.565 429.733 663.194 443.434 669.981 451.245C702.508 488.508 701.228 486.075 688.166 485.307C671.518 484.411 654.358 473.782 622.598 444.587C594.937 419.232 592.888 417.824 575.728 415.775C564.203 414.366 561.513 413.598 559.593 411.293C551.397 401.177 566.252 374.542 582.259 370.445C589.047 368.78 589.815 368.78 596.346 370.829Z" fill="#B92224"/>
<path d="M567.532 452.526C568.941 454.19 571.118 458.544 572.27 462.386C576.112 475.703 570.477 493.246 556.519 511.045C534.236 539.473 490.311 561.498 469.437 554.711C464.059 552.918 452.533 545.491 446.771 539.985C440.496 533.966 439.087 534.735 478.658 525.387C498.763 520.649 506.447 517.704 517.588 510.405C527.961 503.618 535.005 495.423 545.378 477.88C559.848 453.55 562.282 449.708 563.562 449.708C564.331 449.708 566.123 450.989 567.532 452.526Z" fill="#B92224"/>
<path d="M597.499 497.344C602.109 503.874 598.907 523.722 590.711 541.137C581.491 560.601 568.429 574.175 550.244 583.01C527.577 594.023 498.764 594.535 493.129 584.035C491.08 580.065 494.794 575.583 505.551 569.565C536.926 551.894 545.89 544.851 563.306 523.979C579.186 504.899 589.687 494.527 592.889 494.527C594.297 494.527 596.474 495.807 597.499 497.344Z" fill="#B92224"/>
<path d="M631.563 511.045C638.606 513.35 648.723 519.369 674.463 536.784C781.394 609.005 813.281 626.292 850.803 632.182C853.492 632.566 855.669 633.463 855.669 633.975C855.669 635.896 840.942 641.658 830.185 643.835C807.006 648.445 767.82 640.762 733.884 624.883C700.075 609.005 650.388 576.992 631.051 558.68C620.294 548.436 617.092 541.521 616.452 527.18C616.068 518.856 616.452 515.015 617.732 513.35C619.653 510.789 626.953 509.509 631.563 511.045Z" fill="#B92224"/>
<path d="M395.675 527.308C399.389 529.869 401.31 534.735 406.048 552.662C410.786 570.846 414.884 579.809 426.666 598.377C438.447 616.688 441.905 624.883 442.033 634.231C442.033 642.042 437.167 660.61 432.941 668.933C429.739 675.208 428.075 674.183 426.538 664.964C425.129 655.744 418.726 643.707 406.945 628.213C384.022 597.993 380.82 593.127 378.131 585.187C374.161 573.023 372.624 561.242 373.136 547.796C373.521 536.4 373.777 535.375 377.234 531.79C380.564 528.333 387.223 525.259 391.449 525.259C392.218 525.259 394.138 526.156 395.675 527.308Z" fill="#B92224"/>
<path d="M361.867 527.948C348.164 545.107 344.067 554.839 344.067 570.718C344.067 579.809 344.579 581.986 348.293 589.413C353.799 600.426 363.66 612.847 389.016 640.506C417.702 672.007 424.489 680.074 430.38 690.19C436.783 701.202 442.289 717.337 441.777 723.483C441.393 727.581 440.881 728.221 437.807 728.605C434.734 728.99 431.532 726.429 413.476 708.629C402.078 697.361 385.174 681.867 376.082 674.312C341.249 645.244 328.187 628.981 316.661 600.042C308.466 579.681 305.52 559.961 308.978 549.461C311.027 543.443 319.735 534.735 327.803 530.766C333.309 528.076 336.895 527.436 348.933 526.796C361.099 526.284 363.02 526.412 361.867 527.948Z" fill="#B92224"/>
<path d="M612.738 564.315C620.038 566.876 624.52 570.077 708.4 632.822C751.428 665.091 790.102 695.055 795.353 700.178C804.573 709.141 804.829 709.653 802.908 712.47C799.323 717.849 795.481 718.873 783.059 717.336C773.454 716.184 769.741 715.032 757.703 709.141C727.737 694.287 686.245 663.043 643.857 623.475C615.683 597.096 603.39 580.961 603.39 570.205C603.39 563.546 605.951 562.01 612.738 564.315Z" fill="#B92224"/>
<path d="M600.572 590.053C624.007 610.029 741.695 763.948 741.695 774.448C741.695 777.777 734.14 780.466 727.224 779.57C701.868 776.112 681.763 756.905 625.928 682.251C589.943 634.231 579.058 616.816 579.058 607.34C579.058 599.145 588.15 585.443 593.657 585.443C594.553 585.443 597.627 587.492 600.572 590.053Z" fill="#B92224"/>
<path d="M500.301 610.03C500.557 610.926 501.069 622.066 501.453 634.744C501.965 653.951 502.606 659.842 505.295 669.83C507.088 676.488 508.24 682.379 507.856 683.019C507.472 683.531 505.807 684.043 504.014 684.043C499.532 684.043 492.233 675.848 485.574 663.683C477.506 648.573 475.969 649.854 480.451 668.037C484.421 684.043 484.165 684.684 475.585 680.33C469.566 677.257 463.163 670.598 460.858 664.964C457.016 655.872 462.907 642.683 478.402 625.396C492.489 609.902 498.764 605.42 500.301 610.03Z" fill="#B92224"/>
<path d="M568.044 616.816C582.259 631.542 608.64 675.208 631.563 721.818C653.973 767.533 669.341 809.918 668.444 824.26C668.06 830.662 668.06 830.662 663.45 831.047C652.949 831.943 636.813 811.07 617.476 771.759C589.943 715.544 552.165 626.164 552.165 617.072C552.165 613.615 555.751 609.773 559.08 609.773C560.361 609.773 564.331 612.975 568.044 616.816Z" fill="#B92224"/>
<path d="M541.792 625.395C551.14 635.383 569.197 684.939 581.491 733.855C589.943 767.405 590.967 776.752 590.327 815.936C589.943 846.028 589.687 849.102 587.254 854.48C583.796 861.779 575.728 870.999 572.655 870.999C568.813 870.999 567.532 865.62 556.647 803.643C547.939 754.343 542.816 727.837 532.956 681.482C523.479 637.432 522.327 630.133 523.992 625.908C525.144 622.834 525.912 622.578 532.187 622.578C537.822 622.578 539.743 623.219 541.792 625.395Z" fill="#B92224"/>
</svg>
