<svg width="1080" height="1080" viewBox="0 0 1080 1080" fill="none" xmlns="http://www.w3.org/2000/svg">
<path d="M1080 0H0V1080H1080V0Z" fill="#933132"/>
<path d="M600 0H480V1080H600V0Z" fill="#F8C420"/>
<path d="M1080 480H0V600H1080V480Z" fill="#F8C420"/>
<path d="M832.572 336.471C823.431 332.64 804.858 332.64 795.708 336.471C784.692 337.116 773.967 338.706 763.449 341.082C761.262 340.644 756.669 342.444 756.54 338.775V117.591C756.669 113.925 761.262 115.725 763.449 115.29C780.699 118.266 798.012 121.035 816.447 119.898C828.981 119.988 841.644 120.57 853.308 117.591C890.421 91.926 936.918 126.027 933.945 168.282C924.927 198.948 887.475 220.74 857.34 208.026C838.035 201.033 832.134 188.982 857.34 188.442C888.921 167.478 853.152 124.923 823.926 143.514C791.697 162.978 793.542 214.959 830.262 228.186C772.83 244.248 810.933 346.884 863.091 307.098C870.732 301.05 870.165 290.538 868.857 281.754C863.994 267.555 847.851 265.794 837.174 262.746C860.148 230.469 913.761 243.684 928.758 277.146C950.253 337.578 877.362 361.173 832.572 336.471Z" fill="#F8C420"/>
<path d="M247.428 336.471C256.569 332.64 275.142 332.64 284.292 336.471C295.308 337.116 306.033 338.706 316.551 341.082C318.738 340.644 323.331 342.444 323.46 338.775V117.591C323.331 113.925 318.738 115.725 316.551 115.29C299.301 118.266 281.988 121.035 263.553 119.898C251.019 119.988 238.356 120.57 226.692 117.591C189.579 91.926 143.082 126.027 146.055 168.282C155.073 198.948 192.525 220.74 222.66 208.026C241.965 201.033 247.866 188.982 222.66 188.442C191.079 167.478 226.848 124.923 256.074 143.514C288.303 162.978 286.458 214.959 249.738 228.186C307.17 244.248 269.067 346.884 216.909 307.098C209.268 301.05 209.835 290.538 211.143 281.754C216.006 267.555 232.149 265.794 242.826 262.746C219.852 230.469 166.239 243.684 151.242 277.146C129.747 337.578 202.638 361.173 247.428 336.471Z" fill="#F8C420"/>
<path d="M832.572 743.529C823.431 747.36 804.858 747.36 795.708 743.529C784.692 742.884 773.967 741.294 763.449 738.918C761.262 739.356 756.669 737.556 756.54 741.225V962.409C756.669 966.075 761.262 964.275 763.449 964.71C780.699 961.734 798.012 958.965 816.447 960.102C828.981 960.012 841.644 959.43 853.308 962.409C890.421 988.074 936.918 953.973 933.945 911.718C924.927 881.052 887.475 859.26 857.34 871.974C838.035 878.967 832.134 891.018 857.34 891.558C888.921 912.522 853.152 955.077 823.926 936.486C791.697 917.022 793.542 865.041 830.262 851.814C772.83 835.752 810.933 733.116 863.091 772.902C870.732 778.95 870.165 789.462 868.857 798.246C863.994 812.445 847.851 814.206 837.174 817.254C860.148 849.531 913.761 836.316 928.758 802.854C950.253 742.422 877.362 718.827 832.572 743.529Z" fill="#F8C420"/>
<path d="M247.428 743.529C256.569 747.36 275.142 747.36 284.292 743.529C295.308 742.884 306.033 741.294 316.551 738.918C318.738 739.356 323.331 737.556 323.46 741.225V962.409C323.331 966.075 318.738 964.275 316.551 964.71C299.301 961.734 281.988 958.965 263.553 960.102C251.019 960.012 238.356 959.43 226.692 962.409C189.579 988.074 143.082 953.973 146.055 911.718C155.073 881.052 192.525 859.26 222.66 871.974C241.965 878.967 247.866 891.018 222.66 891.558C191.079 912.522 226.848 955.077 256.074 936.486C288.303 917.022 286.458 865.041 249.738 851.814C307.17 835.752 269.067 733.116 216.909 772.902C209.268 778.95 209.835 789.462 211.143 798.246C216.006 812.445 232.149 814.206 242.826 817.254C219.852 849.531 166.239 836.316 151.242 802.854C129.747 742.422 202.638 718.827 247.428 743.529Z" fill="#F8C420"/>
</svg>
