<?xml version="1.0" encoding="UTF-8" standalone="no"?>
<!-- Created with Inkscape (http://www.inkscape.org/) -->

<svg
   width="90.31102mm"
   height="90.31102mm"
   viewBox="0 0 90.31102 90.31102"
   version="1.1"
   id="svg8714"
   inkscape:version="1.1.2 (0a00cf5339, 2022-02-04)"
   sodipodi:docname="aoe4.OrderOfTheDragon.svg"
   inkscape:export-filename="./aoe4.OrderOfTheDragons.png"
   inkscape:export-xdpi="72"
   inkscape:export-ydpi="72"
   xmlns:inkscape="http://www.inkscape.org/namespaces/inkscape"
   xmlns:sodipodi="http://sodipodi.sourceforge.net/DTD/sodipodi-0.dtd"
   xmlns="http://www.w3.org/2000/svg"
   xmlns:svg="http://www.w3.org/2000/svg"
   xmlns:rdf="http://www.w3.org/1999/02/22-rdf-syntax-ns#"
   xmlns:cc="http://creativecommons.org/ns#"
   xmlns:dc="http://purl.org/dc/elements/1.1/">
  <defs
     id="defs8708" />
  <sodipodi:namedview
     id="base"
     pagecolor="#ffffff"
     bordercolor="#666666"
     borderopacity="1.0"
     inkscape:pageopacity="0.0"
     inkscape:pageshadow="2"
     inkscape:zoom="1"
     inkscape:cx="73"
     inkscape:cy="249.5"
     inkscape:document-units="px"
     inkscape:current-layer="layer1"
     inkscape:pagecheckerboard="0"
     showgrid="false"
     fit-margin-top="0"
     fit-margin-left="0"
     fit-margin-right="0"
     fit-margin-bottom="0"
     inkscape:window-width="1920"
     inkscape:window-height="1002"
     inkscape:window-x="0"
     inkscape:window-y="0"
     inkscape:window-maximized="1"
     showguides="true"
     inkscape:guide-bbox="true" />
  <metadata
     id="metadata8711">
    <rdf:RDF>
      <cc:Work
         rdf:about="">
        <dc:format>image/svg+xml</dc:format>
        <dc:type
           rdf:resource="http://purl.org/dc/dcmitype/StillImage" />
      </cc:Work>
    </rdf:RDF>
  </metadata>
  <g
     inkscape:label="Ebene 1"
     inkscape:groupmode="layer"
     id="layer1"
     transform="translate(-92.427826,-139.29687)">
    <rect
       style="fill:#ffdd55;fill-opacity:1;stroke-width:5.21926;stroke-linecap:round;stroke-linejoin:round;paint-order:markers stroke fill"
       id="rect859"
       width="90.31102"
       height="90.31102"
       x="92.427826"
       y="139.29688" />
    <g
       id="g71337">
      <g
         id="g51280"
         transform="matrix(0.21388076,0,0,0.21388076,102.14313,136.85867)">
        <g
           id="g45315"
           transform="matrix(1.4758825,0,0,1.4758825,-65.473502,-92.250647)">
          <g
             id="g67711"
             transform="translate(-10.411485,10.13102)">
            <path
               style="fill:#000000;fill-rule:evenodd;stroke:#ffdd55;stroke-width:0.838183;stroke-linecap:butt;stroke-linejoin:miter;stroke-miterlimit:4;stroke-dasharray:none;stroke-opacity:1"
               d="m 216.90918,246.88764 22.34488,-15.30927 -1.88748,-5.01396 -22.99708,13.96663 z"
               id="path46071" />
            <path
               style="fill:#000000;fill-rule:evenodd;stroke:#000000;stroke-width:0.179271px;stroke-linecap:butt;stroke-linejoin:miter;stroke-opacity:1"
               d="m 236.73975,225.08807 -18.50861,-61.80753 -18.68116,31.57594 16.48254,41.95285 z"
               id="path46106"
               sodipodi:nodetypes="ccccc" />
            <path
               style="fill:#000000;fill-rule:evenodd;stroke:#ffdd55;stroke-width:3.35273;stroke-linecap:butt;stroke-linejoin:miter;stroke-miterlimit:4;stroke-dasharray:none;stroke-opacity:1"
               d="m 217.67305,160.02625 -19.22173,33.2187 -5.76883,-17.88161 -16.64052,10.98591 1.46812,-13.70631 -22.88438,5.95204 1.07521,-11.64563 -18.04898,11.90421 -1.56005,-10.30847 -13.10958,27.36485 -6.63818,-12.17818 -10.35289,28.29382 -19.059197,-23.64455 -22.606167,-8.1991 42.330644,-27.90444 -6.33972,-9.09224 23.10107,-3.98102 -0.0152,-8.66177 23.69996,7.24971 -0.63527,-8.85975 25.35123,7.68162 3.26815,-11.27542 19.11425,10.78434 7.40858,-8.36629 10.5248,17.88423 -7.39279,6.87929 z"
               id="path46331" />
            <path
               style="fill:#000000;fill-rule:evenodd;stroke:#000000;stroke-width:0.179271px;stroke-linecap:butt;stroke-linejoin:miter;stroke-opacity:1"
               d="m 213.78954,234.1687 1.72211,4.11907 -14.58515,8.41947 0.27858,-5.34237 z"
               id="path46366" />
            <path
               style="fill:#000000;fill-rule:evenodd;stroke:#000000;stroke-width:0.179271px;stroke-linecap:butt;stroke-linejoin:miter;stroke-opacity:1"
               d="m 199.40943,200.26153 -15.51601,2.03303 19.73964,20.02444 -3.10593,2.40415 -4.59301,-4.96402 0.96686,6.8299 -5.64438,-0.64046 0.10141,-5.43284 -3.60531,5.51945 -4.04369,-2.27995 2.53237,-8.75168 -21.7027,-16.57565 10.325,-4.57293 -30.73642,-8.95847 -14.0688,20.40978 17.64369,-3.17629 13.76204,-0.8993 1.55945,1.86524 -1.71519,2.64474 -4.79284,-0.13361 7.04482,3.94577 -2.01747,3.42054 -4.91737,-2.8276 4.71494,6.13049 -3.41002,2.41127 -5.24929,-4.94373 -8.0382,-2.12914 -26.31362,7.89067 -1.29638,-19.46233 -8.38728,25.32255 11.49645,26.78226 34.5765,15.33843 38.60931,-12.09656 23.75919,-7.50722 25.0481,-15.20316 4.9123,6.61981 -25.52861,20.3436 -67.11533,21.27635 -45.47041,-17.96233 -23.341344,-34.65512 2.024266,-21.08432 -1.101188,-17.09621 19.721516,24.10751 10.24383,-28.22737 6.48349,11.5939 12.54675,-25.13041 1.21883,8.54313 17.66437,-12.00107 -0.78016,10.93395 22.455,-5.77852 -1.26499,14.4528 17.12242,-10.86823 5.82346,18.27302 z"
               id="path46401"
               sodipodi:nodetypes="cccccccccccccccccccccccccccccccccccccccccccccccccccccc" />
            <path
               style="fill:#000000;fill-rule:evenodd;stroke:none;stroke-width:0.179271px;stroke-linecap:butt;stroke-linejoin:miter;stroke-opacity:1"
               d="m 242.3155,246.00879 5.81759,-6.46234 c 3.71279,-3.34147 4.36103,-6.77468 4.59322,-10.22034 2.68175,3.6917 1.95705,9.10582 0.23635,15.02355 5.45332,0.95029 9.2106,3.50716 9.98732,8.88741 1.76433,-0.11552 3.01783,0.33246 3.74582,1.36015 1.39647,-0.30566 2.6126,0.0389 3.7761,0.57331 2.25511,-1.04236 4.52835,-2.13672 6.36536,-1.97988 1.67044,0.8817 3.20138,2.30862 3.34437,9.15997 -3.41126,2.80277 -7.70545,4.77546 -12.72024,6.07071 -4.82913,-0.23885 -8.76694,-1.56877 -12.57171,-3.06155 -2.3436,0.0609 -2.68453,0.88341 -3.27647,1.61047 -0.62833,0.88731 -1.27,1.7713 -0.41123,3.02811 5.60572,3.43047 12.17764,3.93606 18.32457,5.72819 0.61468,0.52974 0.96645,1.12931 0.68758,1.89642 -0.73206,2.01271 -2.49033,2.94137 -4.00687,4.12538 l -6.30761,1.71016 c 1.18168,-1.24868 2.60029,-2.36399 3.0772,-4.00942 -2.54402,-0.1602 -4.64121,-0.62943 -5.52981,-1.93452 -5.69067,-2.05903 -11.4896,-4.04871 -18.26724,-5.41143 -4.36502,0.75114 -6.10135,2.90942 -8.39434,4.76972 -0.91317,-2.58265 0.17124,-5.59263 0.86515,-8.51907 l -4.21438,-3.72157 c -4.12566,-0.0867 -8.22316,0.12313 -12.25983,0.97333 2.41752,-2.30365 5.33722,-4.32028 9.28136,-5.75141 z"
               id="path48658"
               sodipodi:nodetypes="cccccccccccccccccccccccccc" />
            <path
               style="fill:#f9f9f9;fill-rule:evenodd;stroke:none;stroke-width:0.179271px;stroke-linecap:butt;stroke-linejoin:miter;stroke-opacity:1"
               d="m 159.1436,219.66932 1.96737,-2.02413 -0.87852,6.68815 z"
               id="path50251" />
            <path
               style="fill:#f9f9f9;fill-rule:evenodd;stroke:none;stroke-width:0.179271px;stroke-linecap:butt;stroke-linejoin:miter;stroke-opacity:1"
               d="m 164.42993,211.25509 -1.1818,2.59906 2.57876,2.9913 z"
               id="path50319" />
            <path
               style="fill:#f9f9f9;fill-rule:evenodd;stroke:none;stroke-width:0.179271px;stroke-linecap:butt;stroke-linejoin:miter;stroke-opacity:1"
               d="m 162.83602,206.16675 c 0.0577,-0.0619 0.69415,-1.8468 0.69415,-1.8468 l 2.10164,4.54437 z"
               id="path50420" />
            <path
               style="fill:#f9f9f9;fill-rule:evenodd;stroke:none;stroke-width:0.179271px;stroke-linecap:butt;stroke-linejoin:miter;stroke-opacity:1"
               d="m 201.24242,225.69254 c 0.28881,-0.17747 2.16317,-1.40524 2.16317,-1.40524 l -1.08427,5.83954 z"
               id="path50488" />
            <path
               style="fill:#f9f9f9;fill-rule:evenodd;stroke:none;stroke-width:0.179271px;stroke-linecap:butt;stroke-linejoin:miter;stroke-opacity:1"
               d="m 192.16242,227.7919 2.78641,0.704 -4.43673,3.09198 z"
               id="path50490"
               sodipodi:nodetypes="cccc" />
            <path
               style="fill:#f9f9f9;fill-rule:evenodd;stroke:none;stroke-width:0.179271px;stroke-linecap:butt;stroke-linejoin:miter;stroke-opacity:1"
               d="m 180.94618,228.86095 2.53031,-3.24245 2.32592,1.60474 z"
               id="path50492" />
            <path
               style="fill:#f9f9f9;fill-rule:evenodd;stroke:none;stroke-width:0.179271px;stroke-linecap:butt;stroke-linejoin:miter;stroke-opacity:1"
               d="m 268.43589,269.24727 3.32111,-0.75495 -2.90254,4.27523 z"
               id="path50882" />
            <path
               style="fill:#f9f9f9;fill-rule:evenodd;stroke:none;stroke-width:0.179271px;stroke-linecap:butt;stroke-linejoin:miter;stroke-opacity:1"
               d="m 275.14352,266.80069 4.57703,-2.79526 -3.18771,7.59798 z"
               id="path50950" />
          </g>
        </g>
      </g>
      <path
         style="fill:#ffdd55;fill-opacity:1;fill-rule:evenodd;stroke:none;stroke-width:0.264583px;stroke-linecap:butt;stroke-linejoin:miter;stroke-opacity:1"
         d="m 164.68523,200.37038 c 0,0 1.22524,-0.63143 1.6649,-0.27651 0.43966,0.35491 0.23168,0.31452 0.23168,0.31452 -0.84653,0.57917 -1.32751,0.14896 -1.89658,-0.038 z"
         id="path67746"
         sodipodi:nodetypes="cscc" />
    </g>
  </g>
</svg>
