<svg width="1080" height="1080" viewBox="0 0 1080 1080" fill="none" xmlns="http://www.w3.org/2000/svg">
<rect width="1080" height="1080" fill="#E3E3E3"/>
<path d="M744.093 715.125C744.093 715.125 848.133 533.94 863.547 479.97L875.107 441.42L925.2 464.55L902.08 495.39C867.4 537.795 748 773 748 773" fill="#BA3F42"/>
<path d="M289.4 426C243.411 426 199.306 444.277 166.788 476.81C134.269 509.343 116 553.467 116 599.475C116 645.483 134.269 689.607 166.788 722.14C199.306 754.673 243.411 772.95 289.4 772.95C263.851 772.95 239.348 754.673 221.282 722.14C203.216 689.607 193.067 645.483 193.067 599.475C193.067 553.467 203.216 509.343 221.282 476.81C239.348 444.277 263.851 426 289.4 426Z" fill="#BA3F42"/>
<path d="M558.68 275.39C577.833 275.39 593.36 259.857 593.36 240.695C593.36 221.533 577.833 206 558.68 206C539.527 206 524 221.533 524 240.695C524 259.857 539.527 275.39 558.68 275.39Z" stroke="#BA3F42" stroke-width="30"/>
<path d="M559 445V272M386 773V445H733V773" stroke="#BA3F42" stroke-width="36"/>
</svg>
