<svg width="1080" height="1080" viewBox="0 0 1080 1080" fill="none" xmlns="http://www.w3.org/2000/svg">
<rect width="1080" height="540" fill="#EFEFEF"/>
<rect y="540" width="1080" height="540" fill="#2C5AA0"/>
<path d="M540 388.024C474.723 344.016 454.957 231.855 477.279 139.043C492.049 140.42 497.284 144.703 504.259 153.551C501.697 132.296 514.975 125.775 540 100.4C565.025 125.771 578.3 132.296 575.741 153.551C582.716 144.706 587.951 140.42 602.724 139.043C625.044 231.855 605.277 344.016 540 388.024ZM715.584 872.473C726.724 862.675 728.437 856.134 728.885 844.876C739.3 863.579 753.88 861.049 789.04 866.866C794.377 831.628 801.28 818.546 786.713 802.859C797.556 805.921 804.316 806.309 817.071 798.74C780.573 710.533 698.657 631.408 619.978 634.175C593.037 708.144 642.973 810.51 715.584 872.473ZM262.929 798.74C275.688 806.306 282.441 805.917 293.284 802.859C278.72 818.549 285.627 831.628 290.96 866.866C326.12 861.049 340.697 863.579 351.116 844.876C351.56 856.134 353.276 862.675 364.416 872.473C437.031 810.5 486.963 708.144 460.022 634.175C381.344 631.411 299.427 710.533 262.929 798.74ZM925.573 464.761C919.701 451.137 914.009 447.484 903.44 443.584C924.454 439.455 926.556 424.806 942.947 393.168C911.081 377.207 900.773 366.593 881.356 375.598C887.616 366.23 890.071 359.931 886.813 345.455C791.654 352.907 691.094 406.364 669.408 482.047C731.434 530.524 844.215 514.667 925.573 464.761ZM193.174 345.458C189.92 359.931 192.378 366.234 198.635 375.601C179.214 366.593 168.906 377.207 137.043 393.168C153.441 424.809 155.54 439.455 176.547 443.584C165.978 447.484 160.286 451.137 154.414 464.761C235.785 514.667 348.563 530.53 410.592 482.047C388.906 406.364 288.342 352.907 193.174 345.458Z" fill="#529423"/>
<path d="M539.86 370.673C539.86 370.673 536.465 352.538 536.446 343.366C536.308 279.359 534.347 216.21 536.446 156.766C536.984 141.563 539.86 111.253 539.86 111.253C539.86 111.253 543.493 141.553 543.271 156.766C542.347 220.744 546.734 284.102 543.271 343.366C542.735 352.525 539.86 370.673 539.86 370.673ZM643.586 672.227C675.632 722.209 716.409 770.891 753.27 823.194C762.043 835.629 782.786 858.007 782.786 858.007C782.786 858.007 767.295 831.794 758.789 819.179C725.542 769.857 686.841 719.917 649.106 668.216C643.694 660.803 630.289 648.132 630.289 648.132C630.289 648.132 638.635 664.504 643.586 672.227ZM431.126 668.382C393.492 714.297 359.795 768.136 321.443 819.345C312.323 831.523 297.452 858.174 297.452 858.174C297.452 858.174 317.594 835.346 326.965 823.36C363.604 776.499 399.139 724.262 436.649 672.394C442.025 664.955 449.937 648.295 449.937 648.295C449.937 648.295 436.939 661.289 431.126 668.382ZM712.891 471.357C770.331 456.33 829.23 432.584 890.361 413.692C904.896 409.201 932.591 396.383 932.591 396.383C932.591 396.383 902.872 403.012 888.253 407.2C831.064 423.579 771.614 444.951 710.779 464.865C702.064 467.718 685.865 476.55 685.865 476.55C685.865 476.55 704.016 473.678 712.891 471.357ZM369.13 465.133C313.831 443.528 252.22 428.116 191.659 407.468C177.262 402.562 147.321 396.651 147.321 396.651C147.321 396.651 175.258 408.754 189.551 413.963C245.44 434.33 306.105 451.979 367.021 471.628C375.752 474.442 394.047 476.821 394.047 476.821C394.047 476.821 377.675 468.472 369.13 465.133Z" fill="#2D5016"/>
<path d="M215.715 447.409C160.423 486.326 191.78 572.332 212.148 636.751C232.515 701.169 256.339 789.685 323.329 787.779C391.965 785.811 360.914 684.464 425.062 689.872C449.894 750.893 346.497 751.865 365.892 819.554C384.82 885.618 474.103 881.551 540.016 881.551C605.93 881.551 695.213 885.618 714.141 819.554C733.529 751.865 630.145 750.893 654.968 689.872C719.115 684.464 688.068 785.821 756.7 787.779C823.691 789.695 847.515 701.172 867.882 636.751C888.246 572.336 919.613 486.326 864.308 447.413C807.664 407.543 774.809 508.299 726.009 465.169C740.824 400.799 825.029 462.469 848.056 395.995C870.539 331.113 795.969 280.472 742.645 240.661C689.325 200.85 619.423 143.626 566.321 185.64C511.917 228.685 595.008 291.929 540.01 326.299C485.018 291.929 568.103 228.685 513.705 185.64C460.603 143.622 390.698 200.85 337.377 240.661C284.057 280.475 209.494 331.113 231.97 395.995C254.997 462.473 339.202 400.803 354.017 465.169C305.214 508.293 272.365 407.536 215.715 447.409Z" fill="#EA5858"/>
<path d="M638.883 857.74C641.161 857.733 643.472 857.753 645.907 857.586C662.106 856.529 675.277 849.727 687.938 840.241C696.581 833.759 702.893 822.296 702.893 822.296C691.43 823.34 683.557 845.983 645.46 847.572C628.931 848.255 612.343 846.424 595.06 838.75C577.771 831.066 559.806 827.829 541.071 827.829C522.332 827.829 504.22 831.066 486.931 838.75C469.641 846.427 453.06 848.255 436.531 847.572C398.437 845.983 390.708 823.34 379.251 822.296C379.251 822.296 385.407 833.759 394.057 840.241C406.715 849.727 419.888 856.529 436.081 857.586C455.583 858.876 469.413 855.132 486.781 847.419C504.145 839.709 525.152 834.702 541.071 834.702C556.986 834.702 577.843 839.703 595.207 847.419C610.405 854.172 622.925 857.795 638.883 857.74ZM317.186 777.579C312.675 766.707 289.449 766.015 276.207 729.272C270.465 713.327 267.113 696.498 268.879 677.228C270.645 657.957 267.939 639.463 262.149 621.142C256.358 602.831 247.826 586.165 235.377 571.637C222.929 557.116 216.221 541.497 211.746 525.125C201.445 487.403 219.851 472.79 217.279 461.268C217.279 461.268 208.495 470.851 205.166 481.309C200.296 496.611 198.155 511.664 202.173 527.821C207.013 547.278 214.795 559.593 227.299 574.18C239.803 588.776 250.797 607.681 255.715 623.234C260.634 638.797 262.573 660.855 260.801 680.211C259.028 699.576 259.871 714.192 267.084 732.859C273.07 748.363 283.257 759.17 295.947 768.6C304.623 775.056 317.186 777.579 317.186 777.579ZM763.463 775.634C763.463 775.634 775.876 773.114 784.552 766.661C797.246 757.218 807.58 746.418 813.566 730.917C820.782 712.254 821.618 697.481 819.846 678.125C818.08 658.763 820.022 636.849 824.941 621.292C829.863 605.736 840.853 586.828 853.354 572.238C865.862 557.648 873.643 545.182 878.48 525.726C882.492 509.572 880.35 494.665 875.49 479.364C872.158 468.906 863.368 459.323 863.368 459.323C860.806 470.845 879.211 485.458 868.9 523.18C864.425 539.552 857.718 555.17 845.275 569.692C832.83 584.22 824.294 600.886 818.507 619.194C812.727 637.505 810.008 656.008 811.774 675.282C813.533 694.556 810.187 711.385 804.443 727.327C791.201 764.07 767.971 764.761 763.463 775.634ZM239.565 386.937C248.238 379.169 241.661 356.197 271.572 331.9C284.553 321.36 298.957 312.799 317.336 308.569C335.716 304.338 352.127 296.107 367.289 284.787C382.45 273.467 395.232 260.017 404.828 243.36C414.421 226.704 426.808 215.101 440.572 205.671C472.301 183.946 491.425 197.387 501.292 191.316C501.292 191.316 489.715 185.953 479.009 185.93C463.345 185.901 448.899 188.375 435.19 197.295C418.68 208.037 409.531 219.448 399.896 236.18C390.261 252.911 376.281 269.489 363.405 279.101C350.528 288.714 330.719 297.285 312.258 301.535C293.797 305.784 280.489 311.3 265.445 324.118C252.951 334.762 246.031 347.981 241.217 363.303C237.923 373.777 239.565 386.937 239.565 386.937ZM838.842 385.739C838.842 385.739 840.487 372.582 837.197 362.108C832.383 346.787 825.46 333.417 812.965 322.773C797.928 309.956 784.614 304.59 766.153 300.34C747.692 296.09 727.882 287.522 715.006 277.907C702.129 268.291 688.146 251.563 678.514 234.835C668.876 218.103 659.727 206.843 643.218 196.098C629.509 187.177 615.066 184.553 599.398 184.582C588.692 184.602 577.115 190.115 577.115 190.115C586.982 196.189 606.106 182.748 637.838 204.47C651.603 213.903 663.99 225.353 673.579 242.009C683.175 258.665 695.957 272.119 711.118 283.436C726.28 294.752 742.694 303.134 761.074 307.364C779.454 311.594 793.854 320.156 806.839 330.695C836.743 354.999 830.163 377.974 838.842 385.739Z" fill="#FFAAAA"/>
<path d="M584.433 338.339C605.482 298.006 579.645 218.224 579.645 218.224C626.64 218.276 628.585 239.734 639.34 273.905C645 291.916 645.009 317.78 673.41 336.818C699.802 358.687 723.744 350.707 742.159 350.681C777.107 350.632 797.569 345.896 812.133 391.817C812.133 391.817 730.321 391.22 699.489 424.254C674.111 451.457 673.09 481.952 673.09 481.952C673.09 481.952 692.471 505.629 728.571 512.304C772.41 520.405 838.255 470.509 838.255 470.509C852.74 516.459 833.473 524.985 805.171 546.057C790.257 557.158 766.323 565.165 757.477 598.8C745.397 631.359 760.18 652.291 765.895 670.275C776.735 704.417 787.45 722.953 749.451 751.386C749.451 751.386 724.729 671.228 684.631 651.318C651.609 634.916 623.075 643.344 623.075 643.344C623.075 643.344 607.15 669.616 612.128 706.953C618.173 752.3 684.693 801.24 684.693 801.24C646.641 829.591 632.809 813.398 604.552 792.251C589.658 781.101 574.863 760.185 541.005 761.932C507.141 760.185 492.339 781.101 477.452 792.251C449.209 813.398 435.366 829.588 397.314 801.24C397.314 801.24 463.848 752.3 469.889 706.953C474.864 669.616 458.247 644.323 458.247 644.323C458.247 644.323 429.014 636.878 395.996 653.276C355.897 673.2 331.166 753.344 331.166 753.344C293.173 724.911 303.879 706.382 314.722 672.23C320.437 654.239 335.223 633.31 323.14 600.759C314.298 567.12 290.363 559.12 275.446 548.016C247.144 526.953 227.887 518.424 242.359 472.467C242.359 472.467 308.21 522.367 352.043 514.266C388.139 507.591 406.405 483.532 406.405 483.532C406.405 483.532 404.26 452.661 378.879 425.459C348.054 392.424 266.235 393.021 266.235 393.021C280.809 347.1 301.265 351.836 336.212 351.888C354.631 351.911 378.572 359.895 404.965 338.026C433.362 318.987 433.372 293.12 439.038 275.113C449.793 240.942 451.728 219.484 498.73 219.432C498.73 219.432 472.895 299.214 493.945 339.55C511.277 372.765 539.181 383.184 539.181 383.184C539.181 383.184 567.108 371.557 584.433 338.339Z" fill="#E94D4D"/>
<path d="M655.761 825.975C670.632 826.223 682.82 818.993 688.091 801.978C690.464 794.301 688.692 784.75 688.692 784.75L674.323 803.208C669.359 809.622 652.138 811.241 643.792 808.581C630.481 804.354 619.296 800.555 608.476 790.74C597.655 780.925 586.47 770.128 572.102 763.201C562.091 758.374 549.831 757.669 540.969 757.669C532.111 757.669 520.005 758.384 509.988 763.201C495.629 770.118 484.444 780.925 473.617 790.74C462.79 800.555 451.614 804.354 438.294 808.581C429.948 811.234 412.583 809.612 407.612 803.208L393.394 784.75C393.394 784.75 391.619 794.31 393.995 801.978C401.019 824.666 420.355 830.022 441.887 823.357C457.199 818.617 468.783 808.538 479.756 798.593C490.73 788.647 500.943 775.986 513.731 769.827C521.63 766.025 533.217 765.059 540.973 765.059C548.725 765.059 560.472 766.025 568.371 769.827C581.159 775.99 591.372 788.651 602.342 798.593C613.31 808.535 624.893 818.617 640.215 823.357C645.577 825.025 650.803 825.893 655.761 825.975ZM331.574 756.912C339.404 756.863 347.587 752.143 347.587 752.143L326.185 743.836C318.711 740.96 311.944 724.663 311.817 715.687C311.615 701.362 311.618 689.154 317.356 675.543C323.094 661.932 329.612 647.724 331.574 631.548C332.942 620.271 329.821 608.063 327.083 599.397C324.348 590.748 319.974 579.086 312.414 570.785C301.578 558.885 288.173 551.267 275.747 543.71C263.317 536.161 256.234 526.359 248.205 514.644C243.172 507.307 239.314 489.956 243.714 483.114L256.437 463.579C256.437 463.579 247.085 464.735 240.721 469.425C221.894 483.304 222.961 503.811 235.782 522.798C244.899 536.301 257.612 544.526 270.208 552.18C282.8 559.831 297.824 565.883 307.476 576.478C313.436 583.025 317.803 594.123 320.196 601.705C322.592 609.278 325.317 620.953 324.237 629.851C322.487 644.251 314.037 658.205 308.22 671.995C302.404 685.796 296.649 700.173 296.995 716.601C297.485 739.717 308.403 757.055 331.574 756.912ZM749.004 754.911C772.175 755.051 783.09 737.709 783.583 714.604C783.925 698.179 778.318 683.798 772.501 669.998C766.685 656.198 758.087 642.257 756.341 627.853C755.258 618.955 757.986 607.437 760.376 599.864C762.765 592.288 767.282 581.178 773.246 574.637C782.897 564.042 797.778 557.837 810.36 550.183C822.95 542.532 835.82 534.307 844.946 520.807C857.767 501.82 858.831 481.309 839.998 467.431C833.633 462.74 824.288 461.585 824.288 461.585L836.861 481.273C841.261 488.115 837.403 505.466 832.37 512.804C824.34 524.515 817.404 534.173 804.978 541.719C792.546 549.269 779.147 556.89 768.31 568.791C760.751 577.088 756.23 588.741 753.495 597.4C750.753 606.056 747.63 618.276 749 629.557C750.965 645.723 757.487 659.935 763.222 673.546C768.953 687.163 769.113 699.367 768.901 713.696C768.774 722.672 762.011 738.966 754.54 741.848L732.984 750.155C732.991 750.145 741.177 754.862 749.004 754.911ZM272.453 408.679L273.501 385.145C273.853 376.953 286.936 365.277 295.203 362.379C308.396 357.754 319.598 354.059 333.967 355.456C348.338 356.856 363.594 358.844 379.166 355.766C390.029 353.618 400.291 346.81 407.456 341.46C414.62 336.11 424.115 328.188 429.458 318.233C437.119 303.963 439.932 288.567 443.079 274.091C446.222 259.612 453.132 249.719 461.488 238.252C466.723 231.068 481.636 221.916 489.326 224.103L511.329 230.409C511.329 230.409 507.458 221.642 501.152 216.873C482.492 202.759 463.724 210.162 450.116 228.565C440.438 241.647 436.838 256.651 433.652 271.323C430.463 285.998 429.399 302.452 422.578 315.162C418.364 323.012 409.391 330.783 403.121 335.464C396.851 340.148 386.994 346.382 378.426 348.076C364.557 350.818 348.984 346.881 334.424 345.462C319.86 344.042 304.77 342.814 289.671 348.229C268.439 355.844 255.885 371.929 263.18 394.529C265.638 402.167 272.453 408.679 272.453 408.679ZM805.882 407.448C805.882 407.448 812.844 400.936 815.312 393.299C822.604 370.699 809.907 354.617 788.671 346.999C773.575 341.584 758.633 342.811 744.072 344.231C729.505 345.651 713.792 349.587 699.923 346.845C691.358 345.151 681.494 338.914 675.237 334.233C668.957 329.55 660.141 321.781 655.928 313.931C649.099 301.221 648.042 284.767 644.846 270.092C641.651 255.421 638.057 240.416 628.379 227.334C614.762 208.935 595.994 201.532 577.334 215.642C571.028 220.411 567.006 229.178 567.006 229.178L589.159 222.872C596.846 220.685 611.766 229.838 616.998 237.022C625.357 248.488 632.113 258.381 635.257 272.857C638.406 287.336 641.364 302.732 649.027 317.003C654.377 326.955 663.862 334.88 671.027 340.229C678.195 345.579 688.457 352.388 699.319 354.532C714.892 357.61 729.994 355.626 744.372 354.225C758.74 352.825 770.096 356.523 783.292 361.148C791.553 364.047 804.642 375.722 804.985 383.915L805.882 407.448Z" fill="#800000"/>
<path d="M367.054 568.305C337.564 547.555 354.288 501.68 365.151 467.323C376.013 432.966 388.717 385.756 424.448 386.777C461.054 387.825 444.492 441.88 478.705 438.995C491.951 406.449 436.805 405.93 447.149 369.831C457.245 334.596 504.863 336.766 540.016 336.766C575.173 336.766 622.785 334.592 632.88 369.831C643.224 405.934 588.079 406.449 601.324 438.995C635.534 441.88 618.973 387.825 655.582 386.777C691.303 385.756 704.013 432.966 714.875 467.323C725.735 501.677 742.463 547.552 712.976 568.305C682.754 589.573 665.24 535.831 639.206 558.839C647.112 593.17 692.021 560.272 704.297 595.732C716.282 630.343 676.514 657.346 648.071 678.579C619.632 699.818 582.351 730.333 554.026 707.925C525.009 684.963 569.327 651.236 539.997 632.912C510.667 651.236 554.988 684.963 525.968 707.925C497.646 730.333 460.365 699.818 431.926 678.579C403.487 657.346 363.721 630.343 375.707 595.732C387.989 560.288 432.895 593.17 440.797 558.839C414.787 535.828 397.269 589.563 367.054 568.305Z" fill="#E43636"/>
<path d="M539.984 345.912C557.73 345.912 577.938 345.494 593.944 349.029C609.958 352.564 620.396 358.664 624.358 372.491C626.33 379.394 625.38 382.537 623 386.356C620.621 390.175 615.95 394.242 610.545 398.58C605.146 402.918 598.896 407.517 594.506 414.74C590.112 421.963 588.901 432.317 593.07 442.552C594.362 445.705 597.254 447.856 600.577 448.131C611.332 449.038 620.549 444.638 625.879 438.123C631.216 431.605 633.586 424.153 635.939 417.531C638.292 410.908 640.561 405.124 643.361 401.619C646.155 398.11 648.812 396.158 655.807 395.959C669.832 395.557 678.661 403.805 686.864 418.353C695.063 432.901 700.938 452.762 706.419 470.117C711.905 487.468 718.548 507.121 720.222 523.842C721.909 540.557 719.501 552.608 707.926 560.761C702.146 564.832 698.866 564.861 694.596 563.712C690.324 562.566 685.186 559.283 679.51 555.347C673.824 551.413 667.6 546.811 659.554 544.771C651.512 542.725 641.55 544.676 633.373 551.909C630.831 554.152 629.715 557.667 630.498 561.016C632.979 571.807 639.983 579.396 647.66 582.588C655.343 585.78 662.932 585.787 669.767 586.038C676.615 586.273 682.67 586.681 686.776 588.333C690.875 589.981 693.519 591.965 695.873 598.741C700.576 612.326 695.618 623.561 684.697 636.075C673.769 648.583 657.152 660.464 642.787 671.189C628.425 681.911 612.314 694.471 597.365 701.293C582.416 708.115 570.564 709.522 559.45 700.719C553.902 696.325 552.851 693.11 552.586 688.58C552.319 684.046 553.81 677.965 555.697 671.189C557.577 664.41 559.963 656.961 559.369 648.462C558.768 639.969 553.823 630.849 544.602 625.085C541.756 623.306 538.189 623.306 535.342 625.085C526.122 630.849 521.157 639.972 520.576 648.462C519.995 656.961 522.433 664.41 524.326 671.189C526.22 677.965 527.698 684.046 527.44 688.58C527.183 693.107 526.122 696.328 520.573 700.719C509.459 709.508 497.604 708.115 482.655 701.293C467.706 694.471 451.601 681.911 437.233 671.189C422.868 660.46 406.268 648.583 395.327 636.075C384.382 623.567 379.369 612.329 384.072 598.741C386.419 591.972 389.06 589.971 393.172 588.333C397.282 586.681 403.317 586.273 410.175 586.038C417.029 585.796 424.683 585.783 432.367 582.588C440.05 579.392 447.045 571.8 449.529 561.016C450.315 557.667 449.206 554.149 446.656 551.909C438.477 544.676 428.515 542.728 420.476 544.771C412.437 546.811 406.202 551.413 400.52 555.347C394.837 559.28 389.703 562.576 385.433 563.712C381.164 564.861 377.884 564.832 372.103 560.761C360.529 552.618 358.127 540.564 359.811 523.842C361.495 507.121 368.134 487.462 373.618 470.117C379.105 452.765 384.973 432.901 393.176 418.353C401.375 403.805 410.204 395.557 424.226 395.959C431.227 396.161 433.884 398.113 436.678 401.619C439.472 405.124 441.764 410.911 444.104 417.531C446.444 424.153 448.755 431.602 454.082 438.123C459.409 444.645 468.633 449.038 479.388 448.131C482.707 447.86 485.599 445.705 486.892 442.552C491.053 432.323 489.833 421.97 485.456 414.74C481.079 407.517 474.887 402.918 469.491 398.58C464.096 394.242 459.415 390.175 457.039 386.356C454.663 382.537 453.707 379.401 455.681 372.491C459.644 358.658 470.03 352.564 486.014 349.029C501.997 345.494 522.234 345.912 539.984 345.912Z" fill="#E43636"/>
<path d="M592.743 349.457C593.957 349.46 595.191 349.453 596.487 349.535C605.123 350.103 612.151 353.729 618.894 358.788C623.509 362.248 626.871 368.362 626.871 368.362C620.761 367.804 616.56 355.727 596.236 354.881C587.419 354.516 578.577 355.492 569.363 359.585C560.142 363.681 550.553 365.408 540.568 365.408C530.577 365.408 520.915 363.681 511.695 359.585C502.474 355.492 493.628 354.513 484.816 354.881C464.497 355.727 460.378 367.8 454.268 368.362C454.268 368.362 457.551 362.248 462.163 358.788C468.913 353.729 475.941 350.103 484.577 349.535C494.98 348.853 502.353 350.844 511.616 354.96C520.88 359.072 532.082 361.739 540.571 361.739C549.064 361.739 560.188 359.072 569.451 354.96C577.556 351.36 584.23 349.427 592.743 349.457ZM421.171 392.209C418.765 398.009 406.378 398.377 399.315 417.971C396.253 426.474 394.465 435.45 395.405 445.728C396.348 456.007 394.905 465.87 391.814 475.64C388.727 485.405 384.177 494.293 377.538 502.042C370.899 509.788 367.321 518.121 364.935 526.849C359.442 546.974 369.26 554.769 367.886 560.915C367.886 560.915 363.199 555.813 361.427 550.235C358.832 542.075 357.686 534.042 359.831 525.422C362.412 515.046 366.561 508.479 373.229 500.701C379.898 492.913 385.76 482.83 388.384 474.533C391.008 466.236 392.043 454.469 391.096 444.142C390.15 433.815 390.6 426.02 394.445 416.065C397.641 407.797 403.072 402.036 409.838 397.003C414.473 393.557 421.171 392.209 421.171 392.209ZM659.188 393.246C659.188 393.246 665.804 394.594 670.433 398.031C677.202 403.065 682.712 408.829 685.904 417.097C689.756 427.048 690.2 434.928 689.256 445.252C688.306 455.576 689.338 467.264 691.965 475.561C694.593 483.858 700.452 493.944 707.123 501.722C713.795 509.507 717.944 516.156 720.519 526.532C722.66 535.149 721.521 543.097 718.926 551.257C717.154 556.835 712.467 561.946 712.467 561.946C711.092 555.8 720.91 548.006 715.417 527.877C713.031 519.149 709.451 510.816 702.815 503.07C696.176 495.325 691.626 486.437 688.535 476.668C685.454 466.902 684.004 457.035 684.944 446.756C685.885 436.481 684.099 427.502 681.037 418.999C673.977 399.412 661.591 399.047 659.188 393.246ZM379.774 600.55C384.399 604.698 380.89 616.941 396.841 629.906C403.764 635.533 411.447 640.09 421.249 642.352C431.051 644.604 439.805 648.994 447.89 655.032C455.975 661.074 462.793 668.245 467.911 677.133C473.029 686.021 479.632 692.203 486.973 697.233C503.897 708.823 514.094 701.652 519.359 704.89C519.359 704.89 513.183 707.756 507.474 707.769C499.118 707.782 491.415 706.463 484.104 701.711C475.298 695.976 470.421 689.892 465.277 680.971C460.137 672.048 452.685 663.205 445.817 658.074C438.95 652.943 428.384 648.37 418.537 646.109C408.689 643.847 401.593 640.896 393.57 634.068C386.905 628.392 383.217 621.345 380.652 613.172C378.899 607.57 379.774 600.55 379.774 600.55ZM699.388 601.193C699.388 601.193 700.262 608.207 698.506 613.792C695.938 621.961 692.246 629.093 685.584 634.769C677.565 641.611 670.462 644.473 660.621 646.735C650.777 649 640.208 653.577 633.344 658.701C626.48 663.826 619.018 672.753 613.881 681.67C608.743 690.594 603.867 696.599 595.054 702.331C587.743 707.087 580.04 708.49 571.684 708.471C565.975 708.464 559.799 705.526 559.799 705.52C565.054 702.282 575.258 709.453 592.185 697.863C599.522 692.833 606.125 686.726 611.247 677.844C616.365 668.957 623.18 661.786 631.271 655.747C639.356 649.702 648.107 645.234 657.912 642.985C667.711 640.729 675.391 636.163 682.317 630.539C698.271 617.584 694.763 605.328 699.388 601.193Z" fill="#FFAAAA"/>
<path d="M601.745 366.4C609.674 366.266 616.175 370.121 618.986 379.195C620.255 383.285 619.306 388.383 619.306 388.383L611.642 378.539C608.988 375.118 599.81 374.253 595.361 375.667C588.252 377.922 582.292 379.949 576.524 385.184C570.747 390.417 564.78 396.181 557.133 399.869C551.783 402.441 545.249 402.823 540.529 402.823C535.806 402.823 529.346 402.441 524.003 399.869C516.343 396.181 510.379 390.417 504.605 385.184C498.831 379.949 492.871 377.922 485.769 375.667C481.317 374.253 472.053 375.118 469.403 378.539L461.821 388.383C461.821 388.383 460.871 383.285 462.141 379.195C465.888 367.092 476.199 364.236 487.685 367.794C495.851 370.32 502.03 375.696 507.879 381C513.731 386.304 519.179 393.054 526.001 396.341C530.215 398.371 536.393 398.883 540.529 398.883C544.671 398.883 550.931 398.371 555.145 396.341C561.967 393.057 567.411 386.304 573.264 381C579.116 375.696 585.295 370.32 593.461 367.794C596.314 366.906 599.101 366.446 601.745 366.4ZM428.845 403.231C433.023 403.257 437.386 405.774 437.386 405.774L425.972 410.203C421.987 411.737 418.377 420.429 418.308 425.214C418.201 432.855 418.201 439.364 421.262 446.632C424.321 453.895 427.797 461.467 428.845 470.094C429.576 476.11 427.908 482.621 426.452 487.24C424.99 491.858 422.659 498.073 418.628 502.496C412.848 508.835 405.7 512.901 399.07 516.936C392.444 520.954 388.665 526.196 384.382 532.44C381.699 536.353 379.64 545.603 381.99 549.256L388.776 559.668C388.776 559.668 383.788 559.054 380.394 556.551C370.354 549.145 370.922 538.21 377.76 528.082C382.623 520.879 389.402 516.492 396.12 512.412C402.837 508.332 410.847 505.1 415.994 499.447C419.173 495.958 421.504 490.034 422.78 485.993C424.056 481.952 425.509 475.724 424.934 470.979C424.001 463.298 419.493 455.86 416.392 448.503C413.292 441.146 410.22 433.475 410.406 424.711C410.664 412.403 416.487 403.156 428.845 403.231ZM651.472 404.302C663.833 404.223 669.653 413.47 669.914 425.792C670.1 434.556 667.11 442.226 663.993 449.583C660.902 456.94 656.31 464.379 655.373 472.062C654.795 476.805 656.257 482.951 657.527 486.992C658.81 491.033 661.212 496.957 664.394 500.443C669.538 506.096 677.48 509.406 684.187 513.486C690.908 517.566 697.766 521.959 702.629 529.156C709.467 539.288 710.038 550.219 699.988 557.628C696.597 560.135 691.613 560.745 691.613 560.745L698.317 550.238C700.667 546.599 698.608 537.336 695.925 533.429C691.639 527.181 687.951 522.034 681.315 518C674.689 513.979 667.534 509.908 661.76 503.56C657.726 499.14 655.314 492.919 653.855 488.304C652.396 483.689 650.731 477.174 651.459 471.158C652.51 462.535 655.993 454.959 659.045 447.697C662.106 440.437 662.188 433.926 662.08 426.285C662.012 421.5 658.402 412.808 654.416 411.274L642.924 406.844C642.934 406.841 647.298 404.324 651.472 404.302ZM397.314 588.959L397.873 601.513C398.062 605.88 405.037 612.107 409.447 613.658C416.484 616.125 422.457 618.087 430.121 617.349C437.785 616.602 445.922 615.544 454.229 617.186C460.019 618.332 465.493 621.961 469.315 624.814C473.137 627.67 478.2 631.894 481.049 637.201C485.136 644.813 486.637 653.032 488.315 660.744C489.992 668.467 493.677 673.735 498.133 679.855C500.924 683.694 508.878 688.563 512.981 687.405L524.715 684.049C524.715 684.049 522.652 688.723 519.287 691.266C509.335 698.796 499.324 694.847 492.065 685.032C486.905 678.057 484.985 670.05 483.285 662.229C481.584 654.409 481.016 645.629 477.377 638.849C475.131 634.665 470.346 630.52 467.001 628.023C463.655 625.526 458.4 622.19 453.831 621.289C446.434 619.827 438.131 621.926 430.362 622.683C422.594 623.44 414.545 624.096 406.493 621.207C395.167 617.147 388.472 608.566 392.363 596.522C393.678 592.429 397.314 588.959 397.314 588.959ZM681.805 589.615C681.805 589.615 685.522 593.085 686.834 597.165C690.728 609.212 683.952 617.793 672.623 621.854C664.571 624.742 656.607 624.086 648.841 623.329C641.07 622.575 632.688 620.47 625.285 621.935C620.729 622.833 615.461 626.162 612.121 628.662C608.776 631.163 604.066 635.305 601.827 639.489C598.187 646.268 597.62 655.042 595.909 662.869C594.209 670.69 592.296 678.7 587.136 685.671C579.87 695.483 569.866 699.436 559.914 691.899C556.549 689.363 554.404 684.683 554.404 684.683L566.217 688.044C570.323 689.2 578.267 684.323 581.064 680.495C585.523 674.375 589.13 669.103 590.801 661.384C592.482 653.665 594.058 645.446 598.145 637.841C600.994 632.53 606.057 628.303 609.886 625.447C613.705 622.598 619.178 618.972 624.965 617.816C633.275 616.178 641.334 617.235 648.992 617.989C656.662 618.737 662.71 616.765 669.744 614.291C674.16 612.747 681.126 606.519 681.318 602.152L681.805 589.615Z" fill="#800000"/>
<circle cx="540" cy="526" r="76" fill="#D8D8D8"/>
</svg>
