<?xml version="1.0" encoding="UTF-8" standalone="no"?>
<!-- Created with Inkscape (http://www.inkscape.org/) -->

<svg
   width="90.31102mm"
   height="90.31102mm"
   viewBox="0 0 90.31102 90.31102"
   version="1.1"
   id="svg8714"
   inkscape:version="1.1.2 (0a00cf5339, 2022-02-04)"
   sodipodi:docname="aoe4.JeanneDArc.svg"
   inkscape:export-filename="./aoe4.JeanneDArc.png"
   inkscape:export-xdpi="72"
   inkscape:export-ydpi="72"
   xmlns:inkscape="http://www.inkscape.org/namespaces/inkscape"
   xmlns:sodipodi="http://sodipodi.sourceforge.net/DTD/sodipodi-0.dtd"
   xmlns="http://www.w3.org/2000/svg"
   xmlns:svg="http://www.w3.org/2000/svg"
   xmlns:rdf="http://www.w3.org/1999/02/22-rdf-syntax-ns#"
   xmlns:cc="http://creativecommons.org/ns#"
   xmlns:dc="http://purl.org/dc/elements/1.1/">
  <defs
     id="defs8708" />
  <sodipodi:namedview
     id="base"
     pagecolor="#ffffff"
     bordercolor="#666666"
     borderopacity="1.0"
     inkscape:pageopacity="0.0"
     inkscape:pageshadow="2"
     inkscape:zoom="0.35"
     inkscape:cx="51.428571"
     inkscape:cy="35.714286"
     inkscape:document-units="px"
     inkscape:current-layer="layer1"
     inkscape:pagecheckerboard="0"
     showgrid="false"
     fit-margin-top="0"
     fit-margin-left="0"
     fit-margin-right="0"
     fit-margin-bottom="0"
     inkscape:window-width="1920"
     inkscape:window-height="1002"
     inkscape:window-x="0"
     inkscape:window-y="0"
     inkscape:window-maximized="1" />
  <metadata
     id="metadata8711">
    <rdf:RDF>
      <cc:Work
         rdf:about="">
        <dc:format>image/svg+xml</dc:format>
        <dc:type
           rdf:resource="http://purl.org/dc/dcmitype/StillImage" />
      </cc:Work>
    </rdf:RDF>
  </metadata>
  <g
     inkscape:label="Ebene 1"
     inkscape:groupmode="layer"
     id="layer1"
     transform="translate(-92.427826,-139.29687)">
    <rect
       style="fill:#d4aa00;stroke-width:5.21926;stroke-linecap:round;stroke-linejoin:round;paint-order:markers stroke fill"
       id="rect859"
       width="90.31102"
       height="90.31102"
       x="92.427826"
       y="139.29688" />
    <rect
       style="fill:#ececec;stroke-width:4.80218;stroke-linecap:round;stroke-linejoin:round;paint-order:markers stroke fill"
       id="rect971"
       width="83.094261"
       height="83.094261"
       x="96.036201"
       y="142.90526" />
    <path
       style="fill:#d4aa00;fill-rule:evenodd;stroke:none;stroke-width:0.454847px;stroke-linecap:butt;stroke-linejoin:miter;stroke-opacity:1"
       d="m 134.78983,208.39238 c -1.07904,0.5505 -2.53928,1.67477 -4.61838,0.22348 2.01346,-1.39272 5.88331,-4.65288 5.88331,-8.01052 0,-0.95351 0.0406,-2.46668 0.0406,-3.98585 -1.21665,0.0442 -3.80896,0.26211 -4.89654,0.25309 -1.65442,-11.89754 -3.25502,-17.28577 -9.23951,-9.99864 -5.62111,-12.54128 15.40971,-19.12477 11.30787,6.8712 l 2.42862,0.0264 c 0.12371,-9.93224 1.17344,-17.7702 -5.97901,-29.3519 1.35841,-4.37256 2.51069,-6.0062 7.8665,-11.24934 5.35583,5.24314 6.50811,6.87678 7.86652,11.24934 -7.15245,11.5817 -6.10272,19.41966 -5.97901,29.3519 l 2.42862,-0.0264 c -4.10184,-25.99597 16.92899,-19.41248 11.30788,-6.8712 -5.98449,-7.28713 -7.5851,-1.8989 -9.23952,9.99864 -1.08758,0.009 -3.67989,-0.20887 -4.89653,-0.25309 0,1.51917 0.0406,3.03234 0.0406,3.98585 0,3.35764 3.86985,6.6178 5.88331,8.01052 -2.0791,1.45129 -3.53934,0.32702 -4.61838,-0.22348 -0.635,3.20992 -1.56253,4.57641 -2.7935,7.13566 -1.23097,-2.55925 -2.1585,-3.92574 -2.7935,-7.13566 z"
       id="path6012"
       sodipodi:nodetypes="ccscccccccccccccscccc" />
    <path
       style="fill:#d4aa00;fill-rule:evenodd;stroke:none;stroke-width:0.161279px;stroke-linecap:butt;stroke-linejoin:miter;stroke-opacity:1"
       d="m 104.84281,165.95369 c -0.3826,0.19519 -0.90037,0.59383 -1.63757,0.0792 0.71392,-0.49383 2.08609,-1.64981 2.08609,-2.84036 0,-0.3381 0.0144,-0.87464 0.0144,-1.4133 -0.43139,0.0157 -1.35057,0.0929 -1.7362,0.0897 -0.58662,-4.21862 -1.15417,-6.12917 -3.27614,-3.54531 -1.993125,-4.44687 5.46396,-6.78124 4.00953,2.43639 l 0.86114,0.009 c 0.0439,-3.52177 0.41608,-6.30094 -2.12003,-10.40757 0.48166,-1.55041 0.89024,-2.12967 2.7893,-3.98878 1.89906,1.85911 2.30763,2.43837 2.7893,3.98878 -2.53611,4.10663 -2.1639,6.8858 -2.12004,10.40757 l 0.86114,-0.009 c -1.45442,-9.21763 6.00266,-6.88326 4.00954,-2.43639 -2.12198,-2.58386 -2.68952,-0.67331 -3.27614,3.54531 -0.38563,0.003 -1.30481,-0.0741 -1.73621,-0.0897 0,0.53866 0.0144,1.0752 0.0144,1.4133 0,1.19055 1.37217,2.34653 2.0861,2.84036 -0.7372,0.51459 -1.25497,0.11595 -1.63758,-0.0792 -0.22516,1.13817 -0.55404,1.6227 -0.99052,2.53015 -0.43647,-0.90745 -0.76535,-1.39198 -0.99051,-2.53015 z"
       id="path6788"
       sodipodi:nodetypes="ccscccccccccccccscccc" />
    <path
       style="fill:#d4aa00;fill-rule:evenodd;stroke:none;stroke-width:0.161279px;stroke-linecap:butt;stroke-linejoin:miter;stroke-opacity:1"
       d="m 104.84281,219.92876 c -0.3826,0.19519 -0.90037,0.59383 -1.63757,0.0792 0.71392,-0.49383 2.08609,-1.64981 2.08609,-2.84036 0,-0.3381 0.0144,-0.87464 0.0144,-1.4133 -0.43139,0.0157 -1.35057,0.0929 -1.7362,0.0897 -0.58662,-4.21862 -1.15417,-6.12917 -3.27614,-3.54531 -1.993125,-4.44687 5.46396,-6.78124 4.00953,2.43639 l 0.86114,0.009 c 0.0439,-3.52177 0.41608,-6.30094 -2.12003,-10.40757 0.48166,-1.55041 0.89024,-2.12967 2.7893,-3.98878 1.89906,1.85911 2.30763,2.43837 2.7893,3.98878 -2.53611,4.10663 -2.1639,6.8858 -2.12004,10.40757 l 0.86114,-0.009 c -1.45442,-9.21763 6.00266,-6.88326 4.00954,-2.43639 -2.12198,-2.58386 -2.68952,-0.67331 -3.27614,3.54531 -0.38563,0.003 -1.30481,-0.0741 -1.73621,-0.0897 0,0.53866 0.0144,1.0752 0.0144,1.4133 0,1.19055 1.37217,2.34653 2.0861,2.84036 -0.7372,0.51459 -1.25497,0.11595 -1.63758,-0.0792 -0.22516,1.13817 -0.55404,1.6227 -0.99052,2.53015 -0.43647,-0.90745 -0.76535,-1.39198 -0.99051,-2.53015 z"
       id="path6790"
       sodipodi:nodetypes="ccscccccccccccccscccc" />
    <path
       style="fill:#d4aa00;fill-rule:evenodd;stroke:none;stroke-width:0.161279px;stroke-linecap:butt;stroke-linejoin:miter;stroke-opacity:1"
       d="m 168.34283,165.95369 c -0.38261,0.19519 -0.90038,0.59383 -1.63758,0.0792 0.71393,-0.49383 2.0861,-1.64981 2.0861,-2.84036 0,-0.3381 0.0144,-0.87464 0.0144,-1.4133 -0.4314,0.0157 -1.35058,0.0929 -1.73621,0.0897 -0.58662,-4.21862 -1.15416,-6.12917 -3.27614,-3.54531 -1.99312,-4.44687 5.46396,-6.78124 4.00954,2.43639 l 0.86114,0.009 c 0.0439,-3.52177 0.41607,-6.30094 -2.12004,-10.40757 0.48167,-1.55041 0.89024,-2.12967 2.7893,-3.98878 1.89906,1.85911 2.30764,2.43837 2.7893,3.98878 -2.53611,4.10663 -2.16389,6.8858 -2.12003,10.40757 l 0.86114,-0.009 c -1.45443,-9.21763 6.00266,-6.88326 4.00953,-2.43639 -2.12197,-2.58386 -2.68951,-0.67331 -3.27613,3.54531 -0.38564,0.003 -1.30482,-0.0741 -1.73621,-0.0897 0,0.53866 0.0144,1.0752 0.0144,1.4133 0,1.19055 1.37217,2.34653 2.0861,2.84036 -0.73721,0.51459 -1.25498,0.11595 -1.63758,-0.0792 -0.22516,1.13817 -0.55405,1.6227 -0.99052,2.53015 -0.43648,-0.90745 -0.76536,-1.39198 -0.99052,-2.53015 z"
       id="path6792"
       sodipodi:nodetypes="ccscccccccccccccscccc" />
    <path
       style="fill:#d4aa00;fill-rule:evenodd;stroke:none;stroke-width:0.161279px;stroke-linecap:butt;stroke-linejoin:miter;stroke-opacity:1"
       d="m 168.34283,219.92876 c -0.38261,0.19519 -0.90038,0.59383 -1.63758,0.0792 0.71393,-0.49383 2.0861,-1.64981 2.0861,-2.84036 0,-0.3381 0.0144,-0.87464 0.0144,-1.4133 -0.4314,0.0157 -1.35058,0.0929 -1.73621,0.0897 -0.58662,-4.21862 -1.15416,-6.12917 -3.27614,-3.54531 -1.99312,-4.44687 5.46396,-6.78124 4.00954,2.43639 l 0.86114,0.009 c 0.0439,-3.52177 0.41607,-6.30094 -2.12004,-10.40757 0.48167,-1.55041 0.89024,-2.12967 2.7893,-3.98878 1.89906,1.85911 2.30764,2.43837 2.7893,3.98878 -2.53611,4.10663 -2.16389,6.8858 -2.12003,10.40757 l 0.86114,-0.009 c -1.45443,-9.21763 6.00266,-6.88326 4.00953,-2.43639 -2.12197,-2.58386 -2.68951,-0.67331 -3.27613,3.54531 -0.38564,0.003 -1.30482,-0.0741 -1.73621,-0.0897 0,0.53866 0.0144,1.0752 0.0144,1.4133 0,1.19055 1.37217,2.34653 2.0861,2.84036 -0.73721,0.51459 -1.25498,0.11595 -1.63758,-0.0792 -0.22516,1.13817 -0.55405,1.6227 -0.99052,2.53015 -0.43648,-0.90745 -0.76536,-1.39198 -0.99052,-2.53015 z"
       id="path6794"
       sodipodi:nodetypes="ccscccccccccccccscccc" />
  </g>
</svg>
