<?xml version="1.0" encoding="UTF-8" standalone="no"?>
<svg
   xmlns:dc="http://purl.org/dc/elements/1.1/"
   xmlns:cc="http://creativecommons.org/ns#"
   xmlns:rdf="http://www.w3.org/1999/02/22-rdf-syntax-ns#"
   xmlns:svg="http://www.w3.org/2000/svg"
   xmlns="http://www.w3.org/2000/svg"
   xmlns:xlink="http://www.w3.org/1999/xlink"
   id="svg2"
   viewBox="0 0 34 34"
   version="1.0">
  <defs
     id="defs4">
    <linearGradient
       id="linearGradient1483"
       y2="48.977"
       gradientUnits="userSpaceOnUse"
       x2="40.305"
       gradientTransform="matrix(.88932 0 0 .88932 3.5416 3.5416)"
       y1="13.746"
       x1="20.153">
      <stop
         id="stop1354"
         style="stop-color:#982007"
         offset="0" />
      <stop
         id="stop1356"
         style="stop-color:#510f02"
         offset="1" />
    </linearGradient>
    <linearGradient
       id="linearGradient1485"
       y2="46.762"
       gradientUnits="userSpaceOnUse"
       x2="47.844"
       gradientTransform="matrix(.88932 0 0 .88932 -32.549 2.4514)"
       y1="17.421"
       x1="18.505">
      <stop
         id="stop1367"
         style="stop-color:#f1140c"
         offset="0" />
      <stop
         id="stop1370"
         style="stop-color:#8d1a02"
         offset="1" />
    </linearGradient>
    <linearGradient
       id="linearGradient1487"
       y2="46.762"
       gradientUnits="userSpaceOnUse"
       x2="47.844"
       gradientTransform="matrix(.88932 0 0 .88932 3.5416 3.5416)"
       y1="17.421"
       x1="18.505">
      <stop
         id="stop1380"
         style="stop-color:#ff8b8e"
         offset="0" />
      <stop
         id="stop1382"
         style="stop-color:#b42314;stop-opacity:.72241"
         offset="1" />
    </linearGradient>
    <linearGradient
       gradientUnits="userSpaceOnUse"
       y2="345.73395"
       x2="294.28571"
       y1="407.87683"
       x1="348.21429"
       id="linearGradient853"
       xlink:href="#linearGradient851"
       gradientTransform="matrix(0.1293517,0,0,0.1293517,-24.717882,-31.607692)" />
    <linearGradient
       id="linearGradient851">
      <stop
         id="stop847"
         offset="0"
         style="stop-color:#ff0000;stop-opacity:1" />
      <stop
         id="stop849"
         offset="1"
         style="stop-color:#ff5555;stop-opacity:1" />
    </linearGradient>
    <linearGradient
       gradientUnits="userSpaceOnUse"
       y2="340.065"
       x2="288.37082"
       y1="415.065"
       x1="351.66043"
       id="linearGradient861"
       xlink:href="#linearGradient859"
       gradientTransform="matrix(0.1293517,0,0,0.1293517,-24.717882,-31.607692)" />
    <linearGradient
       id="linearGradient859">
      <stop
         id="stop855"
         offset="0"
         style="stop-color:#d40000;stop-opacity:1" />
      <stop
         id="stop857"
         offset="1"
         style="stop-color:#d40000;stop-opacity:1" />
    </linearGradient>
  </defs>
  <g
     id="g898">
    <g
       id="g883" />
  </g>
  <g
     style="stroke-width:0.59664869;stroke-miterlimit:4;stroke-dasharray:none"
     id="g1483"
     transform="matrix(0.42415428,0,0,0.42415428,-16.996452,-24.975631)">
    <path
       id="path839"
       transform="matrix(2.3576327,0,0,2.3576327,40.071391,58.883364)"
       d="M 34 9.5058594 C 32.949413 10.025037 31.990234 10.865126 31.990234 11.279297 C 31.990234 11.577694 31.36444 13.067269 31.857422 13.310547 C 30.908614 13.311301 30.634429 13.368532 29.005859 13.529297 C 28.349884 13.727491 28.008574 13.777882 27.771484 13.710938 C 25.915742 13.18697 24.080144 13.128383 22.75 13.550781 C 21.885094 13.825438 20.9726 14.333741 20.597656 14.748047 C 20.44379 14.918073 20.252654 14.970703 19.792969 14.970703 C 19.09658 14.970703 18.949648 15.141209 19.25 15.599609 C 19.525535 16.020129 20.261673 16.300011 21.398438 16.417969 C 21.946381 16.474827 22.672243 16.625064 23.011719 16.751953 C 23.781156 17.039542 24.568822 17.045096 25.367188 16.769531 C 25.706005 16.652583 25.993304 16.567523 26.005859 16.580078 C 26.018414 16.592633 25.79932 16.997738 25.519531 17.480469 C 24.888976 18.568403 24.058553 19.458984 23.673828 19.458984 C 23.330662 19.458984 22.537707 20.254382 21.101562 22.039062 C 20.530723 22.74844 19.923294 23.415334 19.751953 23.519531 C 19.383321 23.74371 19.261008 24.059621 19.353516 24.552734 C 19.41562 24.883778 19.39302 24.920508 19.056641 25.019531 C 18.69524 25.125922 18.690099 25.134545 18.699219 25.800781 C 18.7043 26.171276 18.76954 26.587902 18.84375 26.726562 C 18.973639 26.969269 18.995086 26.97202 19.396484 26.808594 C 19.625808 26.715225 20.000003 26.441663 20.228516 26.201172 C 20.574074 25.837498 20.666162 25.790264 20.775391 25.921875 C 20.92429 26.101292 21.281478 26.134209 21.378906 25.976562 C 21.414544 25.918894 21.608779 25.897281 21.808594 25.929688 C 22.115681 25.979521 22.249949 25.918583 22.685547 25.535156 C 23.290849 25.002346 23.472968 24.518818 23.753906 22.681641 C 23.928017 21.543058 23.957734 21.458921 24.259766 21.302734 C 24.436477 21.21135 25.079213 21.089206 25.6875 21.03125 C 27.121536 20.894613 27.971464 20.57863 29.558594 19.587891 C 30.264853 19.147016 30.905923 18.785156 30.984375 18.785156 C 31.062827 18.785156 31.511579 19.010266 31.980469 19.285156 C 32.717777 19.717411 33.376692 20.054452 34 20.310547 L 34 9.5058594 z M 7.6679688 16.238281 C 6.1776737 16.196664 4.68983 16.335366 3.2324219 16.652344 C 2.5530226 16.81167 1.7237462 16.929971 1.3398438 17.546875 C 1.2087914 18.189117 0.72605385 18.780437 0.060546875 19.226562 C 0.038314371 19.249048 0.020995949 19.256615 0 19.275391 L 0 20.445312 C 0.092961405 20.430098 0.18679666 20.421663 0.27539062 20.40625 C 0.28100898 20.714619 0.44043234 20.752934 0.66210938 21.044922 C 0.54544064 21.56608 1.1477367 21.394238 1.2050781 21.755859 C 1.6919466 21.603809 1.9296449 22.260416 2.2871094 22.232422 C 3.2700186 22.541931 1.9489596 23.364272 2.5859375 23.796875 C 3.1330354 23.935756 2.8031501 24.372329 3.0371094 24.667969 C 3.8965049 25.277958 4.8041521 25.817557 5.6054688 26.507812 C 5.9601601 26.674655 5.7494842 26.992536 6.1191406 27.289062 C 6.1857337 27.322105 6.5260863 27.538847 6.484375 27.330078 C 6.2542823 26.669339 6.6455191 25.995289 7.0585938 25.466797 C 7.7557146 25.159989 8.7218292 25.151427 9.0996094 24.371094 C 9.3327746 23.864039 9.0377927 22.754815 9.7285156 22.935547 C 10.174084 23.117764 9.9541052 22.677021 10.246094 22.644531 C 10.582689 22.305195 11.222981 22.374327 11.513672 22.146484 C 12.066476 22.019582 12.773124 21.794228 13.074219 21.361328 C 13.737303 21.387677 14.327581 21.199438 15.021484 21.296875 C 15.467029 21.439183 16.632644 21.665828 16.728516 21.566406 C 16.87431 21.415204 16.934072 21.290728 17.072266 21.037109 C 16.972394 20.599433 16.026663 20.226635 15.638672 19.757812 C 14.548829 18.976211 13.911876 17.724229 12.806641 16.96875 C 12.494077 16.690239 11.398052 16.004612 11.474609 16.576172 C 11.054551 16.623715 10.831696 16.72104 11.181641 17.089844 C 10.480264 17.308443 9.699876 16.84093 9.0117188 16.628906 C 8.5629787 16.499999 8.1497181 16.188132 7.6679688 16.238281 z M 6.1035156 22.640625 C 6.5048411 22.685264 6.9112489 22.818868 7.2148438 22.949219 C 7.0408704 23.700591 6.7717813 24.546328 6.2597656 25.126953 C 5.7842365 25.375427 6.2407025 25.402391 6.09375 25.632812 C 5.5491902 26.170993 5.5450211 24.51254 5.0429688 24.390625 C 4.1920227 24.170633 4.5370568 23.241192 5.0234375 22.861328 C 5.3066099 22.639419 5.7021901 22.595986 6.1035156 22.640625 z M 22.091797 23.072266 C 22.107967 23.084094 22.100172 23.131183 22.064453 23.21875 C 22.014098 23.342196 21.948084 23.556436 21.917969 23.695312 C 21.88785 23.83419 21.78541 23.949219 21.689453 23.949219 C 21.593492 23.949219 21.41148 24.036512 21.287109 24.144531 C 21.162739 24.252546 21.232277 24.098705 21.441406 23.802734 C 21.781723 23.321098 22.043286 23.036779 22.091797 23.072266 z M 8.09375 24.361328 C 8.1093953 24.349374 8.107907 24.360032 8.0722656 24.416016 C 7.8579161 24.631549 8.046814 24.397191 8.09375 24.361328 z "
       style="fill:#ffcc00;stroke:#000000;stroke-width:0.75921327;stroke-miterlimit:4;stroke-dasharray:none" />
  </g>
</svg>
